<svg width="37" height="36" viewBox="0 0 37 36" fill="none" xmlns="http://www.w3.org/2000/svg">
<path d="M27.5845 3.57398C26.8024 3.57398 26.031 3.67664 25.2821 3.87991C23.1981 1.40428 20.2652 0 17.1233 0C15.0184 0 12.973 0.638578 11.2081 1.84676C9.68395 2.89005 8.42661 4.31536 7.54265 5.99477C5.59466 6.18518 3.78556 7.09425 2.38925 8.59788C0.848543 10.2562 0 12.4431 0 14.7558C0 16.9133 0.751996 18.9915 2.1176 20.6074C3.4887 22.2299 5.35886 23.2566 7.3836 23.4983C7.41966 23.5027 7.45593 23.5052 7.49228 23.5059L8.74414 23.5322V30.7266C8.74414 33.6343 11.1755 36 14.1641 36H22.8359C25.8245 36 28.2559 33.6343 28.2559 30.7266V27.4874C28.5399 27.3277 28.7876 27.1057 28.9757 26.8312L32.0417 22.3565C33.4778 21.5323 34.6917 20.3275 35.5631 18.8563C36.5031 17.2695 37 15.4396 37 13.5647C37 8.05577 32.7762 3.57398 27.5845 3.57398ZM22.8359 33.8906H14.1641C12.3709 33.8906 10.9121 32.4712 10.9121 30.7266V17.7188C10.9121 15.9741 12.3709 14.5547 14.1641 14.5547H22.8359C23.1599 14.5547 23.474 14.6002 23.7754 14.6888V18.0703H23.416C22.615 18.0703 21.8825 18.4972 21.5046 19.1843C21.1266 19.8715 21.1678 20.7013 21.6122 21.3498L22.2621 22.2983C22.2645 22.3018 22.2668 22.3053 22.2692 22.3088L25.3681 26.8313C25.5562 27.1058 25.8038 27.3279 26.0879 27.4875V30.7266C26.0879 32.4712 24.6291 33.8906 22.8359 33.8906ZM27.1719 25.6611L23.4165 20.1797H24.8594C25.458 20.1797 25.9434 19.7075 25.9434 19.125V11.7422H28.4004V19.125C28.4004 19.7075 28.8857 20.1797 29.4844 20.1797H30.9277L30.3696 20.9942C30.3692 20.9949 30.3687 20.9955 30.3683 20.9962L27.1719 25.6611ZM32.7611 19.0541C32.3658 18.4437 31.6768 18.0703 30.9277 18.0703H30.5684V11.7422C30.5684 10.5791 29.5958 9.63281 28.4004 9.63281H25.9434C24.7479 9.63281 23.7754 10.5791 23.7754 11.7422V12.5258C23.466 12.4728 23.1514 12.4453 22.8359 12.4453H14.1641C11.1755 12.4453 8.74414 14.811 8.74414 17.7188V21.4223L7.59598 21.3982C4.54811 21.005 2.16797 18.0984 2.16797 14.7558C2.16797 12.9668 2.81771 11.2823 3.99773 10.0122C5.14719 8.77437 6.65906 8.08348 8.2549 8.06688C8.67831 8.06245 9.06038 7.81854 9.23309 7.44237C10.7431 4.15287 13.7665 2.10938 17.1233 2.10938C19.8108 2.10938 22.3199 3.42858 24.0074 5.72871C24.2946 6.12007 24.8175 6.27293 25.2787 6.10038C26.0185 5.8237 26.7944 5.68336 27.5845 5.68336C31.5808 5.68336 34.832 9.21888 34.832 13.5647C34.832 15.6292 34.0607 17.5989 32.7611 19.0541Z" fill="white"/>
<path d="M22.5469 27.6328H14.4531C13.8545 27.6328 13.3691 28.105 13.3691 28.6875C13.3691 29.27 13.8545 29.7422 14.4531 29.7422H22.5469C23.1455 29.7422 23.6309 29.27 23.6309 28.6875C23.6309 28.105 23.1455 27.6328 22.5469 27.6328Z" fill="white"/>
<path d="M14.4531 25.2422H16.1875C16.7861 25.2422 17.2715 24.77 17.2715 24.1875C17.2715 23.605 16.7861 23.1328 16.1875 23.1328H14.4531C13.8545 23.1328 13.3691 23.605 13.3691 24.1875C13.3691 24.77 13.8545 25.2422 14.4531 25.2422Z" fill="white"/>
<path d="M14.4531 20.7422H16.1875C16.7861 20.7422 17.2715 20.27 17.2715 19.6875C17.2715 19.105 16.7861 18.6328 16.1875 18.6328H14.4531C13.8545 18.6328 13.3691 19.105 13.3691 19.6875C13.3691 20.27 13.8545 20.7422 14.4531 20.7422Z" fill="white"/>
</svg>
