<svg width="33" height="33" viewBox="0 0 33 33" fill="none" xmlns="http://www.w3.org/2000/svg">
<path fill-rule="evenodd" clip-rule="evenodd" d="M31.8637 1.3559H0.677952C0.303722 1.3559 0 1.05218 0 0.677952C0 0.303722 0.303722 0 0.677952 0H31.8637C32.238 0 32.5417 0.303722 32.5417 0.677952C32.5417 1.05218 32.238 1.3559 31.8637 1.3559ZM12.881 24.4061H30.5078C31.6291 24.4061 32.5416 23.4936 32.5416 22.3722V10.1691C32.5416 9.04778 31.6291 8.13525 30.5078 8.13525H12.881C11.7597 8.13525 10.8472 9.04778 10.8472 10.1691V22.3722C10.8472 23.4936 11.7597 24.4061 12.881 24.4061ZM12.2031 10.1691C12.2031 9.79488 12.5081 9.49116 12.881 9.49116H30.5078C30.8806 9.49116 31.1857 9.79488 31.1857 10.1691V22.3722C31.1857 22.7465 30.8806 23.0502 30.5078 23.0502H12.881C12.5081 23.0502 12.2031 22.7465 12.2031 22.3722V10.1691ZM18.9827 19.6606C18.9827 20.0348 19.2864 20.3385 19.6606 20.3385C20.0349 20.3385 20.3386 20.0348 20.3386 19.6606V16.9489V14.9149C20.3386 13.4194 19.1223 12.2031 17.6268 12.2031C16.1312 12.2031 14.915 13.4194 14.915 14.9149V16.9489V19.6606C14.915 20.0348 15.2187 20.3385 15.5929 20.3385C15.9672 20.3385 16.2709 20.0348 16.2709 19.6606V17.6269H18.9827V19.6606ZM18.9827 14.9149V16.271H16.2709V14.9149C16.2709 14.1678 16.8783 13.559 17.6268 13.559C18.3752 13.559 18.9827 14.1678 18.9827 14.9149ZM23.0503 19.6606C23.0503 20.0348 23.354 20.3385 23.7282 20.3385H25.0841C26.9539 20.3385 28.4739 18.8172 28.4739 16.9488V15.5929C28.4739 13.7244 26.9539 12.2031 25.0841 12.2031H23.7282C23.354 12.2031 23.0503 12.5068 23.0503 12.8811V19.6606ZM25.0841 18.9826H24.4062V13.559H25.0841C26.2055 13.559 27.118 14.4716 27.118 15.5929V16.9488C27.118 18.0701 26.2055 18.9826 25.0841 18.9826ZM7.45747 10.8471H0.677952C0.303722 10.8471 0 10.5434 0 10.1692C0 9.79493 0.303722 9.49121 0.677952 9.49121H7.45747C7.8317 9.49121 8.13542 9.79493 8.13542 10.1692C8.13542 10.5434 7.8317 10.8471 7.45747 10.8471ZM0.677952 14.915H7.45747C7.8317 14.915 8.13542 14.6113 8.13542 14.237C8.13542 13.8628 7.8317 13.5591 7.45747 13.5591H0.677952C0.303722 13.5591 0 13.8628 0 14.237C0 14.6113 0.303722 14.915 0.677952 14.915ZM7.45747 18.9829H0.677952C0.303722 18.9829 0 18.6791 0 18.3049C0 17.9307 0.303722 17.627 0.677952 17.627H7.45747C7.8317 17.627 8.13542 17.9307 8.13542 18.3049C8.13542 18.6791 7.8317 18.9829 7.45747 18.9829ZM0.677952 23.0502H7.45747C7.8317 23.0502 8.13542 22.7465 8.13542 22.3723C8.13542 21.9981 7.8317 21.6943 7.45747 21.6943H0.677952C0.303722 21.6943 0 21.9981 0 22.3723C0 22.7465 0.303722 23.0502 0.677952 23.0502ZM0.677952 5.42377H31.8637C32.238 5.42377 32.5417 5.12005 32.5417 4.74582C32.5417 4.37159 32.238 4.06787 31.8637 4.06787H0.677952C0.303722 4.06787 0 4.37159 0 4.74582C0 5.12005 0.303722 5.42377 0.677952 5.42377ZM31.8637 28.4741H0.677952C0.303722 28.4741 0 28.1703 0 27.7961C0 27.4219 0.303722 27.1182 0.677952 27.1182H31.8637C32.238 27.1182 32.5417 27.4219 32.5417 27.7961C32.5417 28.1703 32.238 28.4741 31.8637 28.4741ZM0.677952 32.5415H31.8637C32.238 32.5415 32.5417 32.2377 32.5417 31.8635C32.5417 31.4893 32.238 31.1855 31.8637 31.1855H0.677952C0.303722 31.1855 0 31.4893 0 31.8635C0 32.2377 0.303722 32.5415 0.677952 32.5415Z" fill="white"/>
</svg>
