<svg width="31" height="21" viewBox="0 0 31 21" fill="none" xmlns="http://www.w3.org/2000/svg">
<path d="M20.5674 10.5816L30.9997 17.3419V3.82129L20.5674 10.5816Z" fill="#29ABE2"/>
<path d="M0 3.82129V17.3419L10.4323 10.5816L0 3.82129Z" fill="#29ABE2"/>
<path d="M30.999 1.76356C30.999 0.881781 30.1048 0 29.2106 0H2.08647C0.894201 0 0.298067 0.587854 0 1.76356L15.4995 11.7571L30.999 1.76356Z" fill="#29ABE2"/>
<path d="M16.0956 13.5206C15.7975 13.5206 15.7975 13.8146 15.4995 13.8146C15.2014 13.8146 15.2014 13.8146 14.9033 13.5206L12.2207 11.7571L0 19.3992C0.298067 20.281 0.894201 20.8688 1.7884 20.8688H28.9125C29.8067 20.8688 30.7009 20.281 30.7009 19.3992L18.7782 11.7571L16.0956 13.5206Z" fill="#29ABE2"/>
</svg>
