<svg width="31" height="32" viewBox="0 0 31 32" fill="none" xmlns="http://www.w3.org/2000/svg">
<path fill-rule="evenodd" clip-rule="evenodd" d="M27.4673 0.759809C27.4673 0.383567 27.0911 0.00732422 26.7149 0.00732422H15.4276C15.0513 0.00732422 14.6751 0.383567 14.6751 0.759809V5.27472H27.4673V0.759809ZM22.9524 3.76975H19.19C18.8138 3.76975 18.4375 3.3935 18.4375 2.64102C18.4375 1.88854 18.8138 1.88854 19.19 1.88854H22.9524C23.3287 1.88854 23.7049 2.26478 23.7049 2.64102C23.7049 3.01726 23.3287 3.76975 22.9524 3.76975ZM10.9122 8.28429C10.9122 6.40308 9.40721 4.52187 7.14975 4.52187C4.8923 4.52187 3.38733 6.02684 3.38733 8.28429V26.7202C3.38733 28.6014 4.8923 30.4826 7.14975 30.4826C9.40721 30.4826 10.9122 28.9776 10.9122 26.7202V8.28429ZM25.5857 12.7993H16.5559V14.6805H25.5857V12.7993ZM12.7928 7.5322H30.1C30.8525 7.5322 31.2287 7.90844 30.8525 8.28468V30.483C30.8525 30.8592 30.4762 31.2355 30.1 31.2355H10.1591C11.6641 30.483 12.7928 28.6018 12.7928 26.7206V8.28468V7.5322ZM16.5553 26.7206C16.5553 27.0968 16.9315 27.473 17.3077 27.473C18.0602 27.473 18.4365 27.0968 18.0602 26.7206C18.0602 26.3443 17.684 25.9681 17.3077 25.9681C16.9315 25.9681 16.5553 26.3443 16.5553 26.7206ZM16.5553 22.9581C16.5553 23.3344 16.9315 23.7106 17.3077 23.7106C18.0602 23.7106 18.4365 23.3344 18.0602 22.9581C18.0602 22.5819 17.684 22.2056 17.3077 22.2056C16.9315 22.2056 16.5553 22.5819 16.5553 22.9581ZM16.5553 19.572C16.5553 19.9482 16.9315 20.3244 17.3077 20.3244C18.0602 20.3244 18.4365 19.9482 18.0602 19.572C18.0602 19.1957 17.684 18.8195 17.3077 18.8195C16.9315 18.8195 16.5553 19.1957 16.5553 19.572ZM20.3177 26.7206C20.3177 27.0968 20.6939 27.473 21.0702 27.473C21.4464 27.473 21.8227 27.0968 21.8227 26.7206C21.8227 26.3443 21.4464 25.9681 21.0702 25.9681C20.6939 25.9681 20.3177 26.3443 20.3177 26.7206ZM20.3177 22.9581C20.3177 23.3344 20.6939 23.7106 21.0702 23.7106C21.4464 23.7106 21.8227 23.3344 21.8227 22.9581C21.8227 22.5819 21.4464 22.2056 21.0702 22.2056C20.6939 22.2056 20.3177 22.5819 20.3177 22.9581ZM20.3177 19.572C20.3177 19.9482 20.6939 20.3244 21.0702 20.3244C21.4464 20.3244 21.8227 19.9482 21.8227 19.572C21.8227 19.1957 21.4464 18.8195 21.0702 18.8195C20.6939 18.8195 20.3177 19.1957 20.3177 19.572ZM24.0801 26.7206C24.0801 27.0968 24.4564 27.473 24.8326 27.473C25.2088 27.473 25.5851 27.0968 25.5851 26.7206C25.5851 26.3443 25.2088 25.9681 24.8326 25.9681C24.4564 25.9681 24.0801 26.3443 24.0801 26.7206ZM24.0801 22.9581C24.0801 23.3344 24.4564 23.7106 24.8326 23.7106C25.2088 23.7106 25.5851 23.3344 25.5851 22.9581C25.5851 22.5819 25.2088 22.2056 24.8326 22.2056C24.4564 22.2056 24.0801 22.5819 24.0801 22.9581ZM24.0801 19.572C24.0801 19.9482 24.4564 20.3244 24.8326 20.3244C25.2088 20.3244 25.5851 19.9482 25.5851 19.572C25.5851 19.1957 25.2088 18.8195 24.8326 18.8195C24.4564 18.8195 24.0801 19.1957 24.0801 19.572ZM26.7138 16.562C27.09 16.562 27.4663 16.1858 27.4663 15.8095H27.09V12.0471C27.09 11.6709 26.7138 11.2946 26.3376 11.2946H15.4265C15.0503 11.2946 14.6741 11.6709 14.6741 12.0471V15.8095C14.6741 16.1858 15.0503 16.562 15.4265 16.562H26.7138ZM1.88121 8.28468V26.7206C1.88121 28.6018 2.6337 30.1067 4.13867 30.8592H0.752485C0.376242 30.8592 0 30.483 0 30.1067V8.28468C0 7.90844 0.376242 7.5322 0.752485 7.5322H1.88121V8.28468Z" fill="#29ABE2"/>
</svg>
