<svg width="110" height="110" viewBox="0 0 110 110" fill="none" xmlns="http://www.w3.org/2000/svg">
<path fill-rule="evenodd" clip-rule="evenodd" d="M55 7C50.833 7 47.5 10.333 47.5 14.5C47.5 16.9794 48.5853 22.5402 50.4848 27.5457C51.4244 30.0217 52.473 32.1145 53.5176 33.5209C54.3363 34.6232 54.846 34.9068 55 34.978C55.154 34.9068 55.6637 34.6232 56.4824 33.5209C57.527 32.1145 58.5756 30.0217 59.5152 27.5457C61.4147 22.5402 62.5 16.9794 62.5 14.5C62.5 10.333 59.167 7 55 7ZM40.5 14.5C40.5 6.467 46.967 0 55 0C63.033 0 69.5 6.467 69.5 14.5C69.5 16.6801 69.0052 19.8822 68.1583 23.2792C69.9628 20.2583 71.8885 17.6254 73.4543 16.096C79.077 10.604 88.2718 10.4219 93.9748 16.1249C99.6831 21.8332 99.4998 30.9497 93.8748 36.5746C92.3279 38.1215 89.6898 40.0455 86.6658 41.8554C90.0832 41.0002 93.3081 40.5 95.5 40.5C103.533 40.5 110 46.967 110 55C110 63.033 103.533 69.5 95.5 69.5C93.3195 69.5 90.1167 69.005 86.7191 68.1579C89.7407 69.9627 92.3742 71.8887 93.9039 73.4548C99.3958 79.0775 99.578 88.2722 93.875 93.9753C88.1666 99.6836 79.0502 99.5003 73.4252 93.8753C71.8785 92.3286 69.9547 89.6907 68.1449 86.6671C69 90.084 69.5 93.3084 69.5 95.5C69.5 103.533 63.033 110 55 110C46.967 110 40.5 103.533 40.5 95.5C40.5 93.3197 40.9949 90.1173 41.8418 86.7201C40.0373 89.7412 38.1115 92.3743 36.5456 93.9038C30.9229 99.3957 21.7282 99.5779 16.0251 93.8748C10.3168 88.1665 10.5001 79.0501 16.1251 73.4251C17.6718 71.8783 20.3097 69.9546 23.3333 68.1448C19.9162 68.9999 16.6917 69.5 14.5 69.5C6.467 69.5 0 63.033 0 55C0 46.967 6.467 40.5 14.5 40.5C16.6801 40.5 19.8822 40.9948 23.2791 41.8416C20.2583 40.0372 17.6256 38.1116 16.0962 36.5458C10.6043 30.9231 10.4221 21.7284 16.1251 16.0254C21.8335 10.317 30.9499 10.5004 36.5749 16.1254C38.1217 17.6721 40.0455 20.3101 41.8553 23.3338C41.0001 19.9165 40.5 16.6918 40.5 14.5ZM68 55C68 47.8203 62.1797 42 55 42C47.8203 42 42 47.8203 42 55C42 62.1797 47.8203 68 55 68C62.1797 68 68 62.1797 68 55ZM47.5 95.5C47.5 93.0206 48.5853 87.4598 50.4848 82.4543C51.4244 79.9783 52.473 77.8855 53.5176 76.4791C54.3363 75.3768 54.846 75.0932 55 75.022C55.154 75.0932 55.6637 75.3768 56.4824 76.4791C57.527 77.8855 58.5756 79.9783 59.5152 82.4543C61.4147 87.4598 62.5 93.0206 62.5 95.5C62.5 99.667 59.167 103 55 103C50.833 103 47.5 99.667 47.5 95.5ZM31.6251 21.0751C28.6501 18.1001 23.9666 18.0834 21.0749 20.9751C18.1779 23.8721 18.1958 28.6773 21.1038 31.6546C22.7775 33.3682 27.4405 36.4999 32.342 38.6929C34.759 39.7744 36.9919 40.5153 38.7384 40.7783C40.0619 40.9776 40.6405 40.8404 40.8246 40.781C40.8819 40.6006 41.0073 40.0474 40.8196 38.7906C40.5619 37.0645 39.8215 34.8429 38.7331 32.4237C36.5324 27.5318 33.3687 22.8187 31.6251 21.0751ZM69.1805 71.2101C68.9928 69.9532 69.1182 69.4001 69.1754 69.2197C69.3596 69.1603 69.9382 69.023 71.2616 69.2223C73.0082 69.4854 75.2411 70.2262 77.6581 71.3077C82.5596 73.5008 87.2226 76.6325 88.8963 78.346C91.8043 81.3233 91.8222 86.1286 88.9252 89.0255C86.0335 91.9172 81.35 91.9006 78.375 88.9256C76.6314 87.182 73.4677 82.4689 71.2669 77.577C70.1786 75.1578 69.4382 72.9362 69.1805 71.2101ZM14.5 47.5C10.333 47.5 7 50.833 7 55C7 59.167 10.333 62.5 14.5 62.5C16.9794 62.5 22.5402 61.4147 27.5457 59.5152C30.0217 58.5756 32.1145 57.527 33.5209 56.4824C34.6232 55.6637 34.9068 55.154 34.978 55C34.9068 54.846 34.6232 54.3363 33.5209 53.5176C32.1145 52.473 30.0217 51.4244 27.5457 50.4848C22.5402 48.5853 16.9794 47.5 14.5 47.5ZM76.4791 56.4824C75.3768 55.6637 75.0932 55.154 75.022 55C75.0932 54.846 75.3768 54.3363 76.4791 53.5176C77.8855 52.473 79.9783 51.4244 82.4543 50.4848C87.4598 48.5853 93.0206 47.5 95.5 47.5C99.667 47.5 103 50.833 103 55C103 59.167 99.667 62.5 95.5 62.5C93.0206 62.5 87.4598 61.4147 82.4543 59.5152C79.9783 58.5756 77.8855 57.527 76.4791 56.4824ZM32.4234 71.2668C27.5315 73.4676 22.8185 76.6312 21.0749 78.3748C18.0998 81.3498 18.0832 86.0334 20.9749 88.9251C23.8718 91.822 28.6771 91.8042 31.6544 88.8961C33.3679 87.2224 36.4996 82.5595 38.6927 77.658C39.7742 75.241 40.515 73.0081 40.7781 71.2615C40.9774 69.9381 40.8401 69.3594 40.7807 69.1753C40.6003 69.1181 40.0472 68.9927 38.7903 69.1803C37.0642 69.4381 34.8426 70.1785 32.4234 71.2668ZM78.3455 21.1036C81.3228 18.1955 86.1281 18.1777 89.0251 21.0746C91.9167 23.9663 91.9001 28.6499 88.9251 31.6249C87.1815 33.3685 82.4684 36.5321 77.5765 38.7329C75.1573 39.8212 72.9357 40.5617 71.2096 40.8194C69.9528 41.0071 69.3996 40.8816 69.2192 40.8244C69.1598 40.6403 69.0225 40.0616 69.2218 38.7382C69.4849 36.9916 70.2258 34.7588 71.3072 32.3417C73.5003 27.4403 76.632 22.7773 78.3455 21.1036Z" fill="#34A2D4"/>
</svg>
