<svg width="106" height="42" viewBox="0 0 106 42" fill="none" xmlns="http://www.w3.org/2000/svg">
<path d="M30.2187 7.65388C30.002 7.43726 29.7854 7.29284 29.4966 7.14843C29.2078 7.04012 28.9189 6.96791 28.594 6.96791C28.0525 6.96791 27.5831 7.07622 27.2582 7.32895C26.8971 7.54557 26.6805 7.8705 26.5722 8.23153L22.0232 21.8787L17.6185 8.66478C17.2575 7.54557 16.5354 7.00401 15.4523 7.00401C14.3692 7.00401 13.6471 7.54557 13.25 8.66478L8.84537 21.8426L4.29632 8.26764C4.15191 7.9066 3.93529 7.61777 3.57425 7.36505C3.21321 7.11232 2.77997 7.00401 2.27452 7.00401C1.94959 7.00401 1.66076 7.07622 1.37193 7.18453C1.08311 7.29284 0.866485 7.47336 0.649863 7.68998C0.433242 7.9066 0.288828 8.15933 0.180518 8.41205C0.0722071 8.70088 0 8.98971 0 9.27854C0 9.53126 0.0361027 9.82009 0.144413 10.145L6.71526 29.8576C6.85967 30.2908 7.1124 30.6157 7.50954 30.9046C7.90668 31.1934 8.33992 31.3017 8.84537 31.3017C9.35082 31.3017 9.78406 31.1573 10.1812 30.9046C10.5783 30.6157 10.8311 30.2908 10.9755 29.8576L15.4523 16.4631L19.9292 29.8576C20.0375 30.2547 20.2902 30.5796 20.6873 30.8685C21.0845 31.1573 21.5177 31.3017 22.0232 31.3017C22.6008 31.3017 23.0702 31.1573 23.4312 30.9046C23.7922 30.6157 24.0089 30.2908 24.1533 29.8576L30.7241 10.145C30.8324 9.85619 30.9046 9.56737 30.9046 9.27854C30.9046 8.98971 30.8324 8.70088 30.7241 8.41205C30.5797 8.12322 30.4353 7.8705 30.2187 7.65388Z" fill="white"/>
<path d="M103.328 5.34337C104.05 5.34337 104.7 5.09064 105.206 4.54909C105.711 4.04364 106 3.39378 106 2.67171C106 1.94964 105.747 1.29977 105.206 0.794324C104.7 0.288874 104.05 4.57764e-05 103.328 4.57764e-05C102.606 4.57764e-05 101.956 0.252771 101.451 0.794324C100.946 1.29977 100.657 1.94964 100.657 2.67171C100.657 3.39378 100.909 4.04364 101.451 4.54909C101.956 5.09064 102.57 5.34337 103.328 5.34337Z" fill="white"/>
<path d="M103.328 7.00407C102.715 7.00407 102.173 7.22069 101.74 7.65393C101.307 8.08717 101.09 8.62873 101.09 9.27859V28.9911C101.09 29.641 101.307 30.1825 101.74 30.6158C102.173 31.049 102.715 31.2656 103.328 31.2656C103.942 31.2656 104.484 31.049 104.917 30.6158C105.35 30.1825 105.603 29.641 105.603 28.9911V9.27859C105.603 8.62873 105.35 8.08717 104.917 7.65393C104.484 7.22069 103.942 7.00407 103.328 7.00407Z" fill="white"/>
<path d="M37.1506 19.0265C38.2337 19.0265 39.1002 18.3045 39.389 17.2575C39.4973 16.8964 39.6056 16.5354 39.7501 16.1744C40.1472 15.2357 40.6887 14.4414 41.3747 13.7554C42.0607 13.0695 42.855 12.5279 43.7936 12.1308C44.7323 11.7336 45.7071 11.517 46.7902 11.517C47.8372 11.517 48.8481 11.7336 49.7507 12.1308C50.6894 12.5279 51.4837 13.0695 52.1697 13.7915C52.8556 14.4775 53.3972 15.3079 53.7943 16.2105C53.9387 16.5715 54.0832 16.9325 54.1554 17.2936C54.4081 18.3045 55.3107 19.0265 56.3577 19.0265C57.8018 19.0265 58.8849 17.6907 58.5961 16.2827C58.4517 15.6689 58.2712 15.0552 58.0184 14.4775C57.4408 13.0334 56.5382 11.7336 55.3468 10.5422C52.9639 8.15938 50.0757 7.00407 46.7541 7.00407C43.5048 7.00407 40.3999 8.30379 38.1254 10.6144C36.5007 12.2752 35.4176 14.1526 34.9483 16.2827C34.6233 17.6907 35.7065 19.0265 37.1506 19.0265Z" fill="white"/>
<path d="M64.9142 19.0266C65.9973 19.0266 66.8638 18.3045 67.1526 17.2575C67.2609 16.8965 67.3692 16.5355 67.5136 16.1744C67.9108 15.2357 68.4523 14.4414 69.1383 13.7555C69.8243 13.0695 70.6185 12.528 71.5572 12.1308C72.4959 11.7337 73.4707 11.5171 74.5538 11.5171C75.6008 11.5171 76.6117 11.7337 77.5143 12.1308C78.453 12.528 79.2473 13.0695 79.9333 13.7916C80.6192 14.4776 81.1608 15.3079 81.5579 16.2105C81.7023 16.5716 81.8467 16.9326 81.9189 17.2936C82.1717 18.3045 83.0743 19.0627 84.1213 19.0627C85.5654 19.0627 86.6485 17.7269 86.3597 16.3188C86.2153 15.7051 86.0347 15.0913 85.782 14.5137C85.2044 13.0695 84.3018 11.7698 83.1104 10.5784C80.7275 8.19554 77.8392 7.04022 74.5177 7.04022C71.1601 7.04022 68.3079 8.23164 65.9251 10.5784C64.2643 12.2391 63.1812 14.1526 62.6758 16.3188C62.3508 17.6908 63.4339 19.0266 64.9142 19.0266Z" fill="white"/>
<path d="M94.2664 7.00407C93.6526 7.00407 93.1111 7.22069 92.6778 7.65393C92.2446 8.08717 92.028 8.62873 92.028 9.27859V31.1573C92.028 31.9877 91.8835 32.7459 91.5586 33.468C91.2337 34.19 90.8004 34.8399 90.2589 35.3815C89.7173 35.923 89.0675 36.3562 88.3454 36.6451C87.6233 36.97 86.8652 37.1144 86.0348 37.1144H42.2412C40.5082 37.1144 39.1002 35.7064 39.1002 33.9734V33.2513C39.1002 32.1321 38.1976 31.2656 37.1145 31.2656H36.5729C35.4537 31.2656 34.5872 32.1682 34.5872 33.2513C34.5872 37.8726 38.342 41.6274 42.9632 41.6274H85.7098C85.8181 41.6274 85.9265 41.6635 86.0348 41.6635C87.4789 41.6635 88.8147 41.3746 90.0784 40.8331C91.342 40.2915 92.4612 39.5334 93.3999 38.5586C94.3386 37.6199 95.0968 36.5007 95.6744 35.237C96.216 33.9734 96.5048 32.6015 96.5048 31.1934V9.27859C96.5048 8.62873 96.2882 8.08717 95.8549 7.65393C95.4217 7.22069 94.8801 7.00407 94.2664 7.00407Z" fill="white"/>
<path d="M94.2664 0.0362091C93.5443 0.0362091 92.8945 0.288934 92.389 0.830487C91.8836 1.33594 91.5947 1.9858 91.5947 2.70787C91.5947 3.42994 91.8475 4.07981 92.389 4.58526C92.8945 5.09071 93.5443 5.37953 94.2664 5.37953C94.9885 5.37953 95.6383 5.12681 96.1438 4.58526C96.6492 4.07981 96.9381 3.42994 96.9381 2.70787C96.9381 1.9858 96.6853 1.33594 96.1438 0.830487C95.6383 0.288934 95.0246 0.0362091 94.2664 0.0362091Z" fill="white"/>
<path d="M35.7064 23.6839V23.7561C35.8869 23.6117 36.1035 23.5034 36.3201 23.4312C36.5368 23.359 36.7534 23.3229 37.0061 23.3229C37.1144 23.3229 37.2227 23.3229 37.3671 23.359C37.4755 23.359 37.6199 23.3951 37.6921 23.4312C37.8004 23.4673 37.8726 23.5034 37.9448 23.5756C38.017 23.6478 38.0531 23.72 38.0531 23.8283C38.0531 23.8644 38.0531 23.9367 38.017 23.9728C37.9809 24.0089 37.9809 24.045 37.9448 24.0811C37.9087 24.1172 37.8726 24.1533 37.8365 24.1533C37.8004 24.1894 37.7282 24.1894 37.6921 24.1894C37.656 24.1894 37.5838 24.1894 37.5477 24.1533C37.4032 24.0811 37.2227 24.045 37.0422 24.045C36.8617 24.045 36.6812 24.0811 36.5368 24.1533C36.3923 24.2255 36.2479 24.2977 36.1396 24.4421C36.0313 24.5504 35.923 24.6948 35.8508 24.8392C35.7786 24.9837 35.7425 25.1642 35.7425 25.3447V27.0055C35.7425 27.1138 35.7064 27.186 35.6342 27.2582C35.562 27.3304 35.4537 27.3665 35.3814 27.3665C35.2731 27.3665 35.2009 27.3304 35.0926 27.2582C35.0204 27.186 34.9843 27.0777 34.9843 27.0055V23.6839C34.9843 23.5756 35.0204 23.5034 35.0926 23.4312C35.1648 23.359 35.2731 23.3229 35.3814 23.3229C35.4898 23.3229 35.562 23.359 35.6342 23.4312C35.6703 23.5034 35.7064 23.5756 35.7064 23.6839Z" fill="white"/>
<path d="M41.5913 26.2473C41.6996 26.2473 41.8079 26.2834 41.8801 26.3556C41.9523 26.4278 41.9884 26.5361 41.9884 26.6444C41.9884 26.7527 41.9523 26.861 41.8801 26.9333C41.5191 27.2582 41.0497 27.4387 40.5443 27.4387C39.9666 27.4387 39.4973 27.2221 39.1001 26.8249C38.703 26.4278 38.4864 25.9585 38.4864 25.3808C38.4864 24.8031 38.703 24.3338 39.1001 23.9367C39.4973 23.5395 39.9666 23.3229 40.5443 23.3229C41.1219 23.3229 41.5913 23.5395 41.9884 23.9367C42.2051 24.1172 42.3495 24.3699 42.4217 24.5865C42.53 24.8392 42.5661 25.092 42.5661 25.3808C42.5661 25.4891 42.53 25.5974 42.4578 25.6696C42.3856 25.7418 42.2773 25.7779 42.1689 25.7779H39.2807C39.3168 25.9224 39.389 26.0307 39.4612 26.139C39.5334 26.2473 39.6417 26.3556 39.75 26.4278C39.8583 26.5 39.9666 26.5722 40.111 26.6083C40.2555 26.6444 40.3638 26.6805 40.5082 26.6805C40.6526 26.6805 40.8331 26.6444 40.9414 26.6083C41.0858 26.5722 41.1942 26.5 41.3025 26.3917C41.4108 26.2834 41.483 26.2473 41.5913 26.2473ZM41.7357 24.9837C41.6996 24.8392 41.6274 24.7309 41.5552 24.6226C41.483 24.5143 41.3747 24.406 41.2664 24.3338C41.1581 24.2616 41.0497 24.1894 40.9053 24.1533C40.7609 24.1172 40.6526 24.0811 40.5082 24.0811C40.3638 24.0811 40.2194 24.1172 40.111 24.1533C39.9666 24.1894 39.8583 24.2616 39.75 24.3338C39.6417 24.406 39.5334 24.5143 39.4612 24.6226C39.389 24.7309 39.3168 24.8392 39.2807 24.9837H41.7357Z" fill="white"/>
<path d="M45.4183 22.312C44.7323 22.312 44.4074 22.6369 44.4074 23.3229V23.5034H45.1295C45.2378 23.5034 45.31 23.5395 45.3822 23.6117C45.4544 23.6839 45.4905 23.7923 45.4905 23.8645C45.4905 23.9728 45.4544 24.045 45.3822 24.1533C45.31 24.2255 45.2017 24.2616 45.1295 24.2616H44.4074V27.0055C44.4074 27.0416 44.4074 27.1138 44.3713 27.1499C44.3352 27.186 44.3352 27.2221 44.2991 27.2582C44.263 27.2943 44.2269 27.3304 44.1908 27.3304C44.1547 27.3665 44.0825 27.3665 44.0464 27.3665C44.0103 27.3665 43.938 27.3665 43.9019 27.3304C43.8658 27.2943 43.8297 27.2943 43.7936 27.2582C43.7575 27.2221 43.7214 27.186 43.7214 27.1499C43.6853 27.1138 43.6853 27.0416 43.6853 27.0055V24.2616H43.5048C43.3965 24.2616 43.2882 24.2255 43.216 24.1533C43.1438 24.0811 43.1077 23.9728 43.1077 23.8645C43.1077 23.7562 43.1438 23.6478 43.216 23.5756C43.2882 23.5034 43.3965 23.4673 43.5048 23.4673H43.6853V23.2868C43.6853 22.0954 44.263 21.5177 45.4544 21.5177C45.5627 21.5177 45.6349 21.5538 45.7071 21.626C45.7793 21.6983 45.8154 21.8066 45.8154 21.8788C45.8154 21.9871 45.7793 22.0593 45.7071 22.1676C45.6349 22.2759 45.5266 22.312 45.4183 22.312Z" fill="white"/>
<path d="M46.8263 23.6839V23.7561C47.0068 23.6117 47.2234 23.5034 47.44 23.4312C47.6566 23.359 47.8733 23.3229 48.126 23.3229C48.2343 23.3229 48.3426 23.3229 48.487 23.359C48.5953 23.359 48.7397 23.3951 48.812 23.4312C48.9203 23.4673 48.9925 23.5034 49.0647 23.5756C49.1369 23.6478 49.173 23.72 49.173 23.8283C49.173 23.8644 49.173 23.9367 49.1369 23.9728C49.1008 24.0089 49.1008 24.045 49.0647 24.0811C49.0286 24.1172 48.9925 24.1533 48.9564 24.1533C48.9203 24.1533 48.8481 24.1894 48.812 24.1894C48.7758 24.1894 48.7036 24.1894 48.6675 24.1533C48.5231 24.0811 48.3426 24.045 48.1621 24.045C47.9816 24.045 47.8011 24.0811 47.6566 24.1533C47.5122 24.2255 47.3678 24.2977 47.2595 24.4421C47.1512 24.5504 47.0429 24.6948 46.9707 24.8392C46.8985 24.9837 46.8624 25.1642 46.8624 25.3447V27.0055C46.8624 27.1138 46.8263 27.186 46.7541 27.2582C46.6818 27.3304 46.5735 27.3665 46.5013 27.3665C46.393 27.3665 46.3208 27.3304 46.2125 27.2582C46.1403 27.186 46.1042 27.0777 46.1042 27.0055V23.6839C46.1042 23.5756 46.1403 23.5034 46.2125 23.4312C46.2847 23.359 46.393 23.3229 46.5013 23.3229C46.6096 23.3229 46.6818 23.359 46.7541 23.4312C46.7902 23.5034 46.8263 23.5756 46.8263 23.6839Z" fill="white"/>
<path d="M52.7112 26.2473C52.8195 26.2473 52.9278 26.2834 53 26.3556C53.0722 26.4278 53.1083 26.5361 53.1083 26.6444C53.1083 26.7527 53.0722 26.861 53 26.9333C52.639 27.2582 52.1696 27.4387 51.6642 27.4387C51.0865 27.4387 50.6172 27.2221 50.22 26.8249C49.8229 26.4278 49.6063 25.9585 49.6063 25.3808C49.6063 24.8031 49.8229 24.3338 50.22 23.9367C50.6172 23.5395 51.0865 23.3229 51.6642 23.3229C52.2418 23.3229 52.7112 23.5395 53.1083 23.9367C53.3249 24.1172 53.4693 24.3699 53.5415 24.5865C53.6499 24.8392 53.686 25.092 53.686 25.3808C53.686 25.4891 53.6499 25.5974 53.5777 25.6696C53.5054 25.7418 53.3971 25.7779 53.2888 25.7779H50.4005C50.4366 25.9224 50.5088 26.0307 50.5811 26.139C50.6533 26.2473 50.7616 26.3556 50.8699 26.4278C50.9782 26.5 51.0865 26.5722 51.2309 26.6083C51.3753 26.6444 51.4836 26.6805 51.6281 26.6805C51.7725 26.6805 51.953 26.6444 52.0613 26.6083C52.2057 26.5722 52.314 26.5 52.4223 26.3917C52.5306 26.2834 52.6029 26.2473 52.7112 26.2473ZM52.8556 24.9837C52.8195 24.8392 52.7473 24.7309 52.6751 24.6226C52.6029 24.5143 52.4945 24.406 52.3862 24.3338C52.2779 24.2616 52.1696 24.1894 52.0252 24.1533C51.8808 24.1172 51.7725 24.0811 51.6281 24.0811C51.4836 24.0811 51.3392 24.1172 51.2309 24.1533C51.0865 24.1894 50.9782 24.2616 50.8699 24.3338C50.7616 24.406 50.6533 24.5143 50.5811 24.6226C50.5088 24.7309 50.4366 24.8392 50.4005 24.9837H52.8556Z" fill="white"/>
<path d="M55.0218 25.453C54.8052 25.3808 54.6246 25.2725 54.5524 25.2003C54.3719 25.0198 54.2636 24.8031 54.2636 24.5504C54.2636 24.3699 54.2997 24.1894 54.408 24.045C54.5163 23.9006 54.6246 23.7561 54.8052 23.6478C54.9496 23.5395 55.1301 23.4673 55.3467 23.3951C55.5633 23.3229 55.7439 23.3229 55.9605 23.3229C56.5742 23.3229 57.0797 23.5756 57.5129 24.045C57.549 24.1172 57.5851 24.1894 57.5851 24.2616C57.5851 24.3699 57.549 24.4782 57.4768 24.5504C57.4046 24.6226 57.2963 24.6587 57.188 24.6587C57.1158 24.6587 57.0436 24.6226 56.9714 24.5865C56.8992 24.5504 56.8631 24.4782 56.827 24.4421C56.5742 24.1894 56.2854 24.0811 55.9244 24.0811C55.5633 24.0811 55.3106 24.1894 55.094 24.406C55.0579 24.4421 55.0218 24.5143 55.0218 24.5504C55.0218 24.6226 55.0579 24.6587 55.1301 24.6948L56.827 25.2725C57.0797 25.3808 57.2241 25.453 57.2963 25.5252C57.4768 25.7057 57.5851 25.9224 57.5851 26.1751C57.5851 26.3556 57.549 26.5361 57.4407 26.6805C57.3324 26.8249 57.2241 26.9694 57.0436 27.0777C56.8992 27.186 56.7187 27.2582 56.502 27.3304C56.3215 27.4026 56.1049 27.4026 55.8883 27.4026C55.2745 27.4026 54.7691 27.1499 54.3358 26.6805C54.2997 26.6083 54.2636 26.5361 54.2636 26.4278C54.2636 26.3195 54.2997 26.2112 54.3719 26.139C54.4441 26.0668 54.5524 26.0307 54.6608 26.0307C54.733 26.0307 54.8052 26.0668 54.8774 26.1029C54.9496 26.139 54.9857 26.2112 55.0218 26.2473C55.2745 26.5 55.5633 26.6083 55.9244 26.6083C56.2854 26.6083 56.5381 26.5 56.7548 26.2834C56.7909 26.2473 56.827 26.1751 56.827 26.139C56.827 26.0668 56.7909 26.0307 56.7187 25.9946L55.0218 25.453Z" fill="white"/>
<path d="M58.921 27.0055C58.921 27.1138 58.8849 27.186 58.8126 27.2944C58.7404 27.3666 58.6321 27.4027 58.5238 27.4027C58.4155 27.4027 58.3433 27.3666 58.2711 27.2944C58.1989 27.2222 58.1628 27.1138 58.1628 27.0055V21.951C58.1628 21.8427 58.1989 21.7705 58.2711 21.6622C58.3433 21.59 58.4516 21.5539 58.5238 21.5539C58.6321 21.5539 58.7043 21.59 58.7765 21.6622C58.8487 21.7344 58.8849 21.8427 58.8849 21.951V23.7201C59.2098 23.4674 59.6069 23.3591 60.0402 23.3591C60.2929 23.3591 60.5456 23.3952 60.7622 23.5035C60.9789 23.6118 61.1955 23.7562 61.376 23.9006C61.5565 24.0811 61.7009 24.2617 61.8092 24.5144C61.9175 24.731 61.9537 24.9837 61.9537 25.2726V27.0777C61.9537 27.186 61.9175 27.2583 61.8453 27.3666C61.7731 27.4388 61.6648 27.4749 61.5926 27.4749C61.4843 27.4749 61.4121 27.4388 61.3399 27.3666C61.2677 27.2944 61.2316 27.186 61.2316 27.0777V25.2726C61.2316 25.1281 61.1955 24.9837 61.1233 24.8393C61.0511 24.6949 60.9789 24.5866 60.8705 24.4783C60.7622 24.37 60.6539 24.2978 60.5095 24.2256C60.3651 24.1533 60.2207 24.1172 60.0763 24.1172C59.9319 24.1172 59.7874 24.1533 59.643 24.1895C59.4986 24.2617 59.3903 24.3339 59.282 24.4422C59.1737 24.5505 59.1015 24.6588 59.0293 24.8032C58.9571 24.9476 58.9571 25.092 58.9571 25.2365V27.0055H58.921Z" fill="white"/>
<path d="M63.5783 22.5648C63.5783 22.6731 63.5422 22.7814 63.4339 22.8897C63.3617 22.962 63.2534 23.0342 63.109 23.0342C62.9646 23.0342 62.8924 22.9981 62.7841 22.8897C62.7119 22.8175 62.6396 22.7092 62.6396 22.5648C62.6396 22.4565 62.6758 22.3482 62.7841 22.2399C62.8563 22.1677 62.9646 22.0955 63.109 22.0955C63.2534 22.0955 63.3256 22.1316 63.4339 22.2399C63.5422 22.3482 63.5783 22.4565 63.5783 22.5648ZM62.748 27.0055V23.684C62.748 23.5757 62.7841 23.5035 62.8563 23.3952C62.9285 23.323 63.0368 23.2869 63.109 23.2869C63.2173 23.2869 63.2895 23.323 63.3617 23.3952C63.4339 23.4674 63.47 23.5757 63.47 23.684V27.0055C63.47 27.1139 63.4339 27.1861 63.3617 27.2944C63.2895 27.3666 63.1812 27.4027 63.109 27.4027C63.0007 27.4027 62.9285 27.3666 62.8563 27.2944C62.7841 27.2222 62.748 27.1139 62.748 27.0055Z" fill="white"/>
<path d="M65.0586 23.6839C65.3835 23.4312 65.7806 23.3229 66.2139 23.3229C66.4666 23.3229 66.7193 23.359 66.9359 23.4673C67.1526 23.5756 67.3692 23.72 67.5497 23.8645C67.7302 24.045 67.8746 24.2255 67.9829 24.4782C68.0913 24.6948 68.1274 24.9476 68.1274 25.2364V27.0416C68.1274 27.1499 68.0913 27.2221 68.0191 27.3304C67.9468 27.4026 67.8385 27.4387 67.7663 27.4387C67.658 27.4387 67.5858 27.4026 67.4775 27.3304C67.4053 27.2582 67.3692 27.1499 67.3692 27.0416V25.2364C67.3692 25.092 67.3331 24.9476 67.2609 24.8031C67.1887 24.6587 67.1165 24.5504 67.0082 24.4421C66.8998 24.3338 66.7915 24.2616 66.6471 24.1894C66.5027 24.1172 66.3583 24.0811 66.2139 24.0811C66.0695 24.0811 65.925 24.1172 65.7806 24.1533C65.6362 24.2255 65.5279 24.2977 65.4196 24.406C65.3113 24.5143 65.2391 24.6226 65.1669 24.767C65.0947 24.9115 65.0947 25.0559 65.0947 25.2003V27.0055C65.0947 27.1138 65.0586 27.186 64.9864 27.2943C64.9141 27.3665 64.8058 27.4026 64.7336 27.4026C64.6253 27.4026 64.5531 27.3665 64.4448 27.2943C64.3726 27.2221 64.3365 27.1138 64.3365 27.0055V23.6839C64.3365 23.5756 64.3726 23.5034 64.4448 23.4312C64.517 23.359 64.6253 23.3229 64.7336 23.3229C64.8419 23.3229 64.9141 23.359 64.9864 23.4312C65.0225 23.5034 65.0586 23.5756 65.0586 23.6839Z" fill="white"/>
<path d="M71.9904 26.9693C71.6294 27.2581 71.1962 27.4025 70.6907 27.4025C70.1131 27.4025 69.6437 27.1859 69.2466 26.7888C68.8494 26.3916 68.6328 25.9223 68.6328 25.3446C68.6328 24.767 68.8494 24.2976 69.2466 23.9005C69.6437 23.5034 70.1131 23.2867 70.6907 23.2867C71.2684 23.2867 71.7377 23.5034 72.1349 23.9005C72.532 24.2976 72.7486 24.767 72.7486 25.3446V27.3664C72.7486 27.547 72.7125 27.6914 72.6764 27.8719C72.6403 28.0163 72.532 28.1607 72.4598 28.3051C72.3515 28.4495 72.2432 28.5579 72.1349 28.6662C71.9904 28.7745 71.8821 28.8467 71.7016 28.9189C71.5572 28.9911 71.4128 29.0633 71.2323 29.0994C71.0517 29.1355 70.9073 29.1716 70.7268 29.1716C70.5463 29.1716 70.3297 29.1355 70.1492 29.0994C69.9686 29.0633 69.7881 28.9911 69.6076 28.8828C69.4271 28.7745 69.2827 28.6662 69.1383 28.5217C68.9938 28.3773 68.8855 28.2329 68.7772 28.0524C68.7411 27.9802 68.705 27.9441 68.705 27.8358C68.705 27.7275 68.7411 27.6192 68.8133 27.547C68.8855 27.4747 68.9938 27.4386 69.1022 27.4386C69.1744 27.4386 69.2466 27.4386 69.2827 27.4747C69.3188 27.5109 69.391 27.5831 69.4632 27.6914C69.5354 27.7997 69.6076 27.908 69.6798 27.9441C69.9686 28.2329 70.2936 28.3773 70.6907 28.3773C71.0879 28.3773 71.4128 28.2329 71.7016 27.9802C71.8821 27.7636 71.9543 27.5831 71.9543 27.3664V26.9693H71.9904ZM70.7268 24.081C70.5463 24.081 70.3658 24.1171 70.2214 24.1893C70.077 24.2615 69.9325 24.3337 69.8242 24.4782C69.7159 24.5865 69.6076 24.7309 69.5354 24.8753C69.4632 25.0197 69.4271 25.2002 69.4271 25.3807C69.4271 25.5613 69.4632 25.7057 69.5354 25.8862C69.6076 26.0306 69.6798 26.175 69.8242 26.2833C69.9325 26.3916 70.077 26.5 70.2214 26.5722C70.3658 26.6444 70.5463 26.6805 70.7268 26.6805C70.9073 26.6805 71.0879 26.6444 71.2323 26.5722C71.3767 26.5 71.5211 26.4277 71.6294 26.2833C71.7377 26.175 71.846 26.0306 71.9182 25.8862C71.9904 25.7418 72.0265 25.5613 72.0265 25.3807C72.0265 25.2002 71.9904 25.0558 71.9182 24.8753C71.846 24.6948 71.7738 24.5865 71.6294 24.4782C71.5211 24.3698 71.3767 24.2615 71.2323 24.1893C71.0517 24.1171 70.9073 24.081 70.7268 24.081Z" fill="white"/>
<path d="M75.5286 27.0055V21.951C75.5286 21.8427 75.5647 21.7705 75.6369 21.6622C75.7091 21.59 75.8175 21.5539 75.9258 21.5539C76.0341 21.5539 76.1424 21.59 76.2146 21.6622C76.2868 21.7344 76.3229 21.8427 76.3229 21.951V26.6445H76.5034C76.6117 26.6445 76.6839 26.6806 76.7561 26.7528C76.8284 26.825 76.8645 26.9333 76.8645 27.0416C76.8645 27.1499 76.8284 27.2222 76.7561 27.2944C76.6839 27.3666 76.5756 27.4027 76.5034 27.4027H75.9619C75.8536 27.4027 75.7814 27.3666 75.7091 27.2944C75.5647 27.2222 75.5286 27.1138 75.5286 27.0055Z" fill="white"/>
<path d="M78.3447 22.5648C78.3447 22.6731 78.3086 22.7814 78.2003 22.8897C78.1281 22.962 78.0198 23.0342 77.8753 23.0342C77.767 23.0342 77.6587 22.9981 77.5504 22.8897C77.4782 22.8175 77.406 22.7092 77.406 22.5648C77.406 22.4565 77.4421 22.3482 77.5504 22.2399C77.6226 22.1677 77.7309 22.0955 77.8753 22.0955C77.9837 22.0955 78.092 22.1316 78.2003 22.2399C78.3086 22.3482 78.3447 22.4565 78.3447 22.5648ZM77.5143 27.0055V23.684C77.5143 23.5757 77.5504 23.5035 77.6226 23.3952C77.6948 23.323 77.8031 23.2869 77.8753 23.2869C77.9837 23.2869 78.0559 23.323 78.1281 23.3952C78.2003 23.4674 78.2364 23.5757 78.2364 23.684V27.0055C78.2364 27.1139 78.2003 27.1861 78.1281 27.2944C78.0559 27.3666 77.9476 27.4027 77.8753 27.4027C77.767 27.4027 77.6948 27.3666 77.6226 27.2944C77.5504 27.2222 77.5143 27.1139 77.5143 27.0055Z" fill="white"/>
<path d="M81.3413 22.312C80.6554 22.312 80.3304 22.6369 80.3304 23.3229V23.5034H81.0525C81.1608 23.5034 81.233 23.5395 81.3052 23.6117C81.3774 23.6839 81.4135 23.7923 81.4135 23.8645C81.4135 23.9728 81.3774 24.045 81.3052 24.1533C81.233 24.2255 81.1247 24.2616 81.0525 24.2616H80.3304V27.0055C80.3304 27.0416 80.3304 27.1138 80.2943 27.1499C80.2582 27.186 80.2582 27.2221 80.2221 27.2582C80.186 27.2943 80.1499 27.3304 80.1138 27.3304C80.0777 27.3665 80.0055 27.3665 79.9694 27.3665C79.9333 27.3665 79.8611 27.3665 79.825 27.3304C79.7889 27.2943 79.7528 27.2943 79.7167 27.2582C79.6806 27.2221 79.6445 27.186 79.6445 27.1499C79.6084 27.1138 79.6084 27.0416 79.6084 27.0055V24.2616H79.4278C79.3195 24.2616 79.2112 24.2255 79.139 24.1533C79.0668 24.0811 79.0307 23.9728 79.0307 23.8645C79.0307 23.7562 79.0668 23.6478 79.139 23.5756C79.2112 23.5034 79.3195 23.4673 79.4278 23.4673H79.6084V23.2868C79.6084 22.0954 80.186 21.5177 81.3774 21.5177C81.4857 21.5177 81.5579 21.5538 81.6301 21.626C81.7024 21.6983 81.7385 21.8066 81.7385 21.8788C81.7385 21.9871 81.7024 22.0593 81.6301 22.1676C81.5218 22.2759 81.4496 22.312 81.3413 22.312Z" fill="white"/>
<path d="M85.0961 26.2473C85.2044 26.2473 85.3127 26.2834 85.3849 26.3556C85.4571 26.4278 85.4932 26.5361 85.4932 26.6444C85.4932 26.7527 85.4571 26.861 85.3849 26.9333C85.0239 27.2582 84.5545 27.4387 84.0491 27.4387C83.4714 27.4387 83.0021 27.2221 82.6049 26.8249C82.2078 26.4278 81.9911 25.9585 81.9911 25.3808C81.9911 24.8031 82.2078 24.3338 82.6049 23.9367C83.0021 23.5395 83.4714 23.3229 84.0491 23.3229C84.6267 23.3229 85.0961 23.5395 85.4932 23.9367C85.7098 24.1172 85.8542 24.3699 85.9264 24.5865C86.0348 24.8392 86.0709 25.092 86.0709 25.3808C86.0709 25.4891 86.0347 25.5974 85.9625 25.6696C85.8903 25.7418 85.782 25.7779 85.6737 25.7779H82.7854C82.8215 25.9224 82.8937 26.0307 82.9659 26.139C83.0382 26.2473 83.1465 26.3556 83.2548 26.4278C83.3631 26.5 83.4714 26.5722 83.6158 26.6083C83.7602 26.6444 83.8685 26.6805 84.013 26.6805C84.1574 26.6805 84.3379 26.6444 84.4462 26.6083C84.5906 26.5722 84.6989 26.5 84.8072 26.3917C84.9155 26.2834 85.0238 26.2473 85.0961 26.2473ZM85.2766 24.9837C85.2405 24.8392 85.1683 24.7309 85.0961 24.6226C85.0238 24.5143 84.9155 24.406 84.8072 24.3338C84.6989 24.2616 84.5906 24.1894 84.4462 24.1533C84.3018 24.1172 84.1935 24.0811 84.0491 24.0811C83.9046 24.0811 83.7602 24.1172 83.6519 24.1533C83.5075 24.1894 83.3992 24.2616 83.2909 24.3338C83.1826 24.406 83.0743 24.5143 83.0021 24.6226C82.9298 24.7309 82.8576 24.8392 82.8215 24.9837H85.2766Z" fill="white"/>
</svg>
