<svg width="30" height="31" viewBox="0 0 30 31" fill="none" xmlns="http://www.w3.org/2000/svg">
<path d="M26.7857 0H3.21428C1.43908 0 0 1.48705 0 3.32143V27.6786C0 29.5129 1.43908 31 3.21428 31H26.7857C28.5609 31 30 29.5129 30 27.6786V3.32143C30 1.48705 28.5609 0 26.7857 0ZM27.8571 27.6786C27.8571 28.2901 27.3774 28.7857 26.7857 28.7857H3.21428C2.62253 28.7857 2.14283 28.2901 2.14283 27.6786V3.32143C2.14283 2.70995 2.62253 2.21426 3.21428 2.21426H26.7857C27.3775 2.21426 27.8572 2.70995 27.8572 3.32143V27.6786H27.8571Z" fill="white"/>
<path d="M9.64285 6.64285H6.42857C5.83681 6.64285 5.35712 7.13854 5.35712 7.75002C5.35712 8.3615 5.83681 8.85718 6.42857 8.85718H9.64285C10.2346 8.85718 10.7143 8.3615 10.7143 7.75002C10.7143 7.13854 10.2346 6.64285 9.64285 6.64285Z" fill="white"/>
<path d="M23.5714 6.64285H13.9286C13.3368 6.64285 12.8571 7.13854 12.8571 7.75002C12.8571 8.3615 13.3368 8.85718 13.9286 8.85718H23.5714C24.1632 8.85718 24.6429 8.3615 24.6429 7.75002C24.6429 7.13854 24.1631 6.64285 23.5714 6.64285Z" fill="white"/>
<path d="M9.64285 14.3929H6.42857C5.83681 14.3929 5.35712 14.8885 5.35712 15.5C5.35712 16.1115 5.83681 16.6071 6.42857 16.6071H9.64285C10.2346 16.6071 10.7143 16.1114 10.7143 15.5C10.7143 14.8885 10.2346 14.3929 9.64285 14.3929Z" fill="white"/>
<path d="M23.5714 14.3929H13.9286C13.3368 14.3929 12.8571 14.8885 12.8571 15.5C12.8571 16.1115 13.3368 16.6071 13.9286 16.6071H23.5714C24.1632 16.6071 24.6429 16.1114 24.6429 15.5C24.6429 14.8885 24.1631 14.3929 23.5714 14.3929Z" fill="white"/>
<path d="M9.64285 22.1428H6.42857C5.83681 22.1428 5.35712 22.6385 5.35712 23.25C5.35712 23.8615 5.83681 24.3571 6.42857 24.3571H9.64285C10.2346 24.3571 10.7143 23.8615 10.7143 23.25C10.7143 22.6385 10.2346 22.1428 9.64285 22.1428Z" fill="white"/>
<path d="M23.5714 22.1428H13.9286C13.3368 22.1428 12.8571 22.6385 12.8571 23.25C12.8571 23.8615 13.3368 24.3571 13.9286 24.3571H23.5714C24.1632 24.3571 24.6429 23.8615 24.6429 23.25C24.6429 22.6385 24.1631 22.1428 23.5714 22.1428Z" fill="white"/>
</svg>
