<svg width="130" height="44" viewBox="0 0 130 44" fill="none" xmlns="http://www.w3.org/2000/svg">
<path d="M37.0606 8.1459C36.795 7.91849 36.5293 7.76689 36.1751 7.61529C35.8209 7.50158 35.4666 7.42578 35.0681 7.42578C34.404 7.42578 33.8283 7.53948 33.4298 7.80479C32.9871 8.0322 32.7214 8.3733 32.5886 8.75231L27.0095 23.0788L21.6076 9.20712C21.1649 8.0322 20.2793 7.46368 18.951 7.46368C17.6226 7.46368 16.7371 8.0322 16.25 9.20712L10.8481 23.0409L5.26907 8.79021C5.09196 8.4112 4.82629 8.108 4.38351 7.84269C3.94074 7.57738 3.4094 7.46368 2.78951 7.46368C2.39101 7.46368 2.03678 7.53948 1.68256 7.65319C1.32834 7.76689 1.06267 7.95639 0.797002 8.1838C0.531335 8.4112 0.354223 8.67651 0.22139 8.94182C0.0885559 9.24502 0 9.54823 0 9.85144C0 10.1167 0.0442769 10.4199 0.177111 10.7611L8.2357 31.4549C8.41281 31.9097 8.72275 32.2509 9.20981 32.5541C9.69687 32.8573 10.2282 32.971 10.8481 32.971C11.468 32.971 11.9993 32.8194 12.4864 32.5541C12.9734 32.2509 13.2834 31.9097 13.4605 31.4549L18.951 17.3937L24.4414 31.4549C24.5743 31.8718 24.8842 32.2129 25.3713 32.5162C25.8583 32.8194 26.3896 32.971 27.0095 32.971C27.718 32.971 28.2936 32.8194 28.7364 32.5541C29.1792 32.2509 29.4448 31.9097 29.6219 31.4549L37.6805 10.7611C37.8134 10.4579 37.9019 10.1546 37.9019 9.85144C37.9019 9.54823 37.8134 9.24502 37.6805 8.94182C37.5034 8.63861 37.3263 8.3733 37.0606 8.1459Z" fill="#34A2D4"/>
<path d="M126.723 5.72065C127.609 5.72065 128.406 5.45535 129.026 4.88683C129.646 4.35622 130 3.67401 130 2.91599C130 2.15797 129.69 1.47576 129.026 0.945147C128.406 0.414535 127.609 0.111328 126.723 0.111328C125.838 0.111328 125.041 0.376634 124.421 0.945147C123.801 1.47576 123.447 2.15797 123.447 2.91599C123.447 3.67401 123.757 4.35622 124.421 4.88683C125.041 5.45535 125.794 5.72065 126.723 5.72065Z" fill="#34A2D4"/>
<path d="M126.723 7.46436C125.971 7.46436 125.307 7.69176 124.775 8.14657C124.244 8.60138 123.978 9.1699 123.978 9.85211V30.546C123.978 31.2282 124.244 31.7967 124.775 32.2515C125.307 32.7063 125.971 32.9337 126.723 32.9337C127.476 32.9337 128.14 32.7063 128.672 32.2515C129.203 31.7967 129.513 31.2282 129.513 30.546V9.85211C129.513 9.1699 129.203 8.60138 128.672 8.14657C128.14 7.69176 127.476 7.46436 126.723 7.46436Z" fill="#34A2D4"/>
<path d="M45.562 20.0854C46.8903 20.0854 47.953 19.3273 48.3072 18.2282C48.44 17.8492 48.5729 17.4702 48.75 17.0912C49.237 16.1058 49.9012 15.2719 50.7425 14.5518C51.5837 13.8317 52.5579 13.2632 53.7091 12.8463C54.8603 12.4294 56.0558 12.202 57.3842 12.202C58.6682 12.202 59.908 12.4294 61.0149 12.8463C62.1662 13.2632 63.1403 13.8317 63.9816 14.5897C64.8228 15.3098 65.487 16.1816 65.9741 17.1291C66.1512 17.5081 66.3283 17.8871 66.4168 18.2661C66.7268 19.3273 67.8337 20.0854 69.1178 20.0854C70.8889 20.0854 72.2173 18.683 71.863 17.2049C71.6859 16.5606 71.4645 15.9163 71.1546 15.3098C70.4461 13.7938 69.3392 12.4294 67.878 11.1786C64.9557 8.67718 61.4134 7.46436 57.3399 7.46436C53.3549 7.46436 49.547 8.82879 46.7575 11.2544C44.765 12.9979 43.4366 14.9687 42.861 17.2049C42.4625 18.683 43.7908 20.0854 45.562 20.0854Z" fill="#34A2D4"/>
<path d="M79.6117 20.085C80.94 20.085 82.0027 19.327 82.3569 18.2279C82.4898 17.8489 82.6226 17.4699 82.7997 17.0909C83.2868 16.1055 83.9509 15.2716 84.7922 14.5515C85.6335 13.8314 86.6076 13.2629 87.7588 12.846C88.9101 12.4291 90.1056 12.2017 91.4339 12.2017C92.718 12.2017 93.9578 12.4291 95.0647 12.846C96.2159 13.2629 97.1901 13.8314 98.0313 14.5894C98.8726 15.3095 99.5368 16.1813 100.024 17.1288C100.201 17.5078 100.378 17.8868 100.467 18.2658C100.777 19.327 101.884 20.1229 103.168 20.1229C104.939 20.1229 106.267 18.7206 105.913 17.2425C105.736 16.5982 105.514 15.9539 105.204 15.3474C104.496 13.8314 103.389 12.467 101.928 11.2162C99.0054 8.71478 95.4632 7.50195 91.3896 7.50195C87.2718 7.50195 83.7738 8.75268 80.8515 11.2162C78.8147 12.9597 77.4864 14.9684 76.8665 17.2425C76.468 18.6827 77.7963 20.085 79.6117 20.085Z" fill="#34A2D4"/>
<path d="M115.61 7.46436C114.857 7.46436 114.193 7.69176 113.661 8.14657C113.13 8.60138 112.864 9.1699 112.864 9.85211V32.82C112.864 33.6918 112.687 34.4877 112.289 35.2457C111.89 36.0037 111.359 36.6859 110.695 37.2544C110.031 37.823 109.234 38.2778 108.348 38.581C107.463 38.9221 106.533 39.0737 105.514 39.0737H51.8052C49.6799 39.0737 47.953 37.5956 47.953 35.7763V35.0183C47.953 33.8434 46.8461 32.9337 45.5177 32.9337H44.8536C43.4809 32.9337 42.4183 33.8813 42.4183 35.0183C42.4183 39.8696 47.0232 43.8113 52.6908 43.8113H105.116C105.249 43.8113 105.381 43.8492 105.514 43.8492C107.285 43.8492 108.924 43.546 110.473 42.9775C112.023 42.409 113.396 41.613 114.547 40.5897C115.698 39.6043 116.628 38.4294 117.337 37.1028C118.001 35.7763 118.355 34.3361 118.355 32.8579V9.85211C118.355 9.1699 118.089 8.60138 117.558 8.14657C117.027 7.69176 116.362 7.46436 115.61 7.46436Z" fill="#34A2D4"/>
<path d="M115.61 0.149414C114.724 0.149414 113.927 0.41472 113.307 0.983233C112.687 1.51385 112.333 2.19606 112.333 2.95408C112.333 3.7121 112.643 4.39431 113.307 4.92492C113.927 5.45554 114.724 5.75874 115.61 5.75874C116.495 5.75874 117.292 5.49344 117.912 4.92492C118.532 4.39431 118.886 3.7121 118.886 2.95408C118.886 2.19606 118.576 1.51385 117.912 0.983233C117.292 0.41472 116.54 0.149414 115.61 0.149414Z" fill="#34A2D4"/>
<path d="M43.791 24.9742V25.05C44.0123 24.8984 44.278 24.7847 44.5437 24.7089C44.8093 24.6331 45.075 24.5952 45.3849 24.5952C45.5178 24.5952 45.6506 24.5952 45.8277 24.6331C45.9606 24.6331 46.1377 24.671 46.2262 24.7089C46.3591 24.7468 46.4476 24.7847 46.5362 24.8605C46.6247 24.9363 46.669 25.0121 46.669 25.1258C46.669 25.1637 46.669 25.2395 46.6247 25.2774C46.5804 25.3153 46.5804 25.3532 46.5362 25.3911C46.4919 25.429 46.4476 25.4669 46.4033 25.4669C46.3591 25.5048 46.2705 25.5048 46.2262 25.5048C46.182 25.5048 46.0934 25.5048 46.0491 25.4669C45.872 25.3911 45.6506 25.3532 45.4292 25.3532C45.2078 25.3532 44.9864 25.3911 44.8093 25.4669C44.6322 25.5427 44.4551 25.6185 44.3223 25.7701C44.1894 25.8838 44.0566 26.0354 43.9681 26.1871C43.8795 26.3387 43.8352 26.5282 43.8352 26.7177V28.4611C43.8352 28.5748 43.7909 28.6506 43.7024 28.7264C43.6138 28.8022 43.481 28.8401 43.3924 28.8401C43.2596 28.8401 43.1711 28.8022 43.0382 28.7264C42.9497 28.6506 42.9054 28.5369 42.9054 28.4611V24.9742C42.9054 24.8605 42.9497 24.7847 43.0382 24.7089C43.1268 24.6331 43.2596 24.5952 43.3924 24.5952C43.5253 24.5952 43.6138 24.6331 43.7024 24.7089C43.7467 24.7847 43.791 24.8605 43.791 24.9742Z" fill="#41AD4C"/>
<path d="M51.0083 27.6652C51.1411 27.6652 51.2739 27.7031 51.3625 27.7789C51.451 27.8547 51.4953 27.9684 51.4953 28.0821C51.4953 28.1958 51.451 28.3095 51.3625 28.3853C50.9197 28.7264 50.3441 28.9159 49.7242 28.9159C49.0158 28.9159 48.4402 28.6885 47.9531 28.2716C47.466 27.8547 47.2004 27.362 47.2004 26.7556C47.2004 26.1491 47.466 25.6564 47.9531 25.2395C48.4402 24.8226 49.0158 24.5952 49.7242 24.5952C50.4327 24.5952 51.0083 24.8226 51.4953 25.2395C51.761 25.429 51.9381 25.6943 52.0267 25.9217C52.1595 26.1871 52.2038 26.4524 52.2038 26.7556C52.2038 26.8693 52.1595 26.983 52.0709 27.0588C51.9824 27.1346 51.8495 27.1725 51.7167 27.1725H48.1745C48.2188 27.3241 48.3073 27.4378 48.3959 27.5515C48.4844 27.6652 48.6173 27.7789 48.7501 27.8547C48.8829 27.9305 49.0158 28.0063 49.1929 28.0442C49.37 28.0821 49.5028 28.12 49.6799 28.12C49.857 28.12 50.0784 28.0821 50.2113 28.0442C50.3884 28.0063 50.5212 27.9305 50.654 27.8168C50.7869 27.7031 50.8754 27.6652 51.0083 27.6652ZM51.1854 26.3387C51.1411 26.1871 51.0525 26.0733 50.964 25.9596C50.8754 25.8459 50.7426 25.7322 50.6098 25.6564C50.4769 25.5806 50.3441 25.5048 50.167 25.4669C49.9899 25.429 49.857 25.3911 49.6799 25.3911C49.5028 25.3911 49.3257 25.429 49.1929 25.4669C49.0158 25.5048 48.8829 25.5806 48.7501 25.6564C48.6173 25.7322 48.4844 25.8459 48.3959 25.9596C48.3073 26.0733 48.2188 26.1871 48.1745 26.3387H51.1854Z" fill="#41AD4C"/>
<path d="M55.7017 23.534C54.8604 23.534 54.4619 23.8751 54.4619 24.5952V24.7847H55.3475C55.4803 24.7847 55.5689 24.8226 55.6574 24.8984C55.746 24.9742 55.7902 25.088 55.7902 25.1638C55.7902 25.2775 55.746 25.3533 55.6574 25.467C55.5689 25.5428 55.436 25.5807 55.3475 25.5807H54.4619V28.4611C54.4619 28.499 54.4619 28.5748 54.4176 28.6127C54.3734 28.6506 54.3734 28.6885 54.3291 28.7264C54.2848 28.7643 54.2405 28.8022 54.1963 28.8022C54.152 28.8401 54.0634 28.8401 54.0191 28.8401C53.9749 28.8401 53.8863 28.8401 53.842 28.8022C53.7978 28.7643 53.7535 28.7643 53.7092 28.7264C53.6649 28.6885 53.6206 28.6506 53.6206 28.6127C53.5764 28.5748 53.5764 28.499 53.5764 28.4611V25.5807H53.355C53.2221 25.5807 53.0893 25.5428 53.0007 25.467C52.9122 25.3912 52.8679 25.2775 52.8679 25.1638C52.8679 25.0501 52.9122 24.9363 53.0007 24.8605C53.0893 24.7847 53.2221 24.7468 53.355 24.7468H53.5764V24.5573C53.5764 23.3066 54.2848 22.7002 55.746 22.7002C55.8788 22.7002 55.9674 22.7381 56.0559 22.8139C56.1445 22.8897 56.1888 23.0034 56.1888 23.0792C56.1888 23.1929 56.1445 23.2687 56.0559 23.3824C55.9674 23.4961 55.8345 23.534 55.7017 23.534Z" fill="#41AD4C"/>
<path d="M57.4285 24.9742V25.05C57.6499 24.8984 57.9156 24.7847 58.1813 24.7089C58.4469 24.6331 58.7126 24.5952 59.0225 24.5952C59.1554 24.5952 59.2882 24.5952 59.4653 24.6331C59.5981 24.6331 59.7752 24.671 59.8638 24.7089C59.9966 24.7468 60.0852 24.7847 60.1738 24.8605C60.2623 24.9363 60.3066 25.0121 60.3066 25.1258C60.3066 25.1637 60.3066 25.2395 60.2623 25.2774C60.218 25.3153 60.218 25.3532 60.1738 25.3911C60.1295 25.429 60.0852 25.4669 60.0409 25.4669C59.9966 25.4669 59.9081 25.5048 59.8638 25.5048C59.8195 25.5048 59.731 25.5048 59.6867 25.4669C59.5096 25.3911 59.2882 25.3532 59.0668 25.3532C58.8454 25.3532 58.624 25.3911 58.4469 25.4669C58.2698 25.5427 58.0927 25.6185 57.9599 25.7701C57.827 25.8838 57.6942 26.0354 57.6056 26.1871C57.5171 26.3387 57.4728 26.5282 57.4728 26.7177V28.4611C57.4728 28.5748 57.4285 28.6506 57.34 28.7264C57.2514 28.8022 57.1186 28.8401 57.03 28.8401C56.8972 28.8401 56.8086 28.8022 56.6758 28.7264C56.5872 28.6506 56.543 28.5369 56.543 28.4611V24.9742C56.543 24.8605 56.5872 24.7847 56.6758 24.7089C56.7644 24.6331 56.8972 24.5952 57.03 24.5952C57.1629 24.5952 57.2514 24.6331 57.34 24.7089C57.3842 24.7847 57.4285 24.8605 57.4285 24.9742Z" fill="#41AD4C"/>
<path d="M64.6459 27.6652C64.7787 27.6652 64.9115 27.7031 65.0001 27.7789C65.0886 27.8547 65.1329 27.9684 65.1329 28.0821C65.1329 28.1958 65.0886 28.3095 65.0001 28.3853C64.5573 28.7264 63.9817 28.9159 63.3618 28.9159C62.6534 28.9159 62.0777 28.6885 61.5907 28.2716C61.1036 27.8547 60.838 27.362 60.838 26.7556C60.838 26.1491 61.1036 25.6564 61.5907 25.2395C62.0777 24.8226 62.6534 24.5952 63.3618 24.5952C64.0703 24.5952 64.6459 24.8226 65.1329 25.2395C65.3986 25.429 65.5757 25.6943 65.6643 25.9217C65.7971 26.1871 65.8414 26.4524 65.8414 26.7556C65.8414 26.8693 65.7971 26.983 65.7085 27.0588C65.62 27.1346 65.4871 27.1725 65.3543 27.1725H61.8121C61.8563 27.3241 61.9449 27.4378 62.0335 27.5515C62.122 27.6652 62.2549 27.7789 62.3877 27.8547C62.5205 27.9305 62.6534 28.0063 62.8305 28.0442C63.0076 28.0821 63.1404 28.12 63.3175 28.12C63.4946 28.12 63.716 28.0821 63.8489 28.0442C64.026 28.0063 64.1588 27.9305 64.2916 27.8168C64.4245 27.7031 64.513 27.6652 64.6459 27.6652ZM64.823 26.3387C64.7787 26.1871 64.6901 26.0733 64.6016 25.9596C64.513 25.8459 64.3802 25.7322 64.2474 25.6564C64.1145 25.5806 63.9817 25.5048 63.8046 25.4669C63.6275 25.429 63.4946 25.3911 63.3175 25.3911C63.1404 25.3911 62.9633 25.429 62.8305 25.4669C62.6534 25.5048 62.5205 25.5806 62.3877 25.6564C62.2549 25.7322 62.122 25.8459 62.0335 25.9596C61.9449 26.0733 61.8563 26.1871 61.8121 26.3387H64.823Z" fill="#41AD4C"/>
<path d="M67.4796 26.8314C67.214 26.7556 66.9926 26.6419 66.904 26.5661C66.6826 26.3766 66.5498 26.1491 66.5498 25.8838C66.5498 25.6943 66.5941 25.5048 66.7269 25.3532C66.8597 25.2016 66.9926 25.05 67.214 24.9363C67.3911 24.8226 67.6125 24.7468 67.8781 24.671C68.1438 24.5952 68.3652 24.5952 68.6309 24.5952C69.3836 24.5952 70.0035 24.8605 70.5348 25.3532C70.5791 25.429 70.6234 25.5048 70.6234 25.5806C70.6234 25.6943 70.5791 25.808 70.4905 25.8838C70.402 25.9596 70.2692 25.9975 70.1363 25.9975C70.0478 25.9975 69.9592 25.9596 69.8707 25.9217C69.7821 25.8838 69.7378 25.808 69.6935 25.7701C69.3836 25.5048 69.0294 25.3911 68.5866 25.3911C68.1438 25.3911 67.8339 25.5048 67.5682 25.7322C67.5239 25.7701 67.4796 25.8459 67.4796 25.8838C67.4796 25.9596 67.5239 25.9975 67.6125 26.0354L69.6935 26.6419C70.0035 26.7556 70.1806 26.8314 70.2692 26.9072C70.4905 27.0967 70.6234 27.3241 70.6234 27.5894C70.6234 27.7789 70.5791 27.9684 70.4463 28.12C70.3134 28.2716 70.1806 28.4232 69.9592 28.5369C69.7821 28.6506 69.5607 28.7264 69.295 28.8022C69.0737 28.878 68.808 28.878 68.5423 28.878C67.7896 28.878 67.1697 28.6127 66.6384 28.12C66.5941 28.0442 66.5498 27.9684 66.5498 27.8547C66.5498 27.741 66.5941 27.6273 66.6826 27.5515C66.7712 27.4757 66.904 27.4378 67.0369 27.4378C67.1254 27.4378 67.214 27.4757 67.3025 27.5136C67.3911 27.5515 67.4354 27.6273 67.4796 27.6652C67.7896 27.9305 68.1438 28.0442 68.5866 28.0442C69.0294 28.0442 69.3393 27.9305 69.605 27.7031C69.6493 27.6652 69.6935 27.5894 69.6935 27.5515C69.6935 27.4757 69.6493 27.4378 69.5607 27.3999L67.4796 26.8314Z" fill="#41AD4C"/>
<path d="M72.2617 28.4608C72.2617 28.5745 72.2174 28.6503 72.1289 28.764C72.0403 28.8398 71.9075 28.8777 71.7746 28.8777C71.6418 28.8777 71.5532 28.8398 71.4647 28.764C71.3761 28.6882 71.3318 28.5745 71.3318 28.4608V23.1547C71.3318 23.041 71.3761 22.9652 71.4647 22.8515C71.5532 22.7757 71.6861 22.7378 71.7746 22.7378C71.9075 22.7378 71.996 22.7757 72.0846 22.8515C72.1731 22.9273 72.2174 23.041 72.2174 23.1547V25.0118C72.6159 24.7465 73.103 24.6328 73.6343 24.6328C73.9442 24.6328 74.2542 24.6707 74.5198 24.7844C74.7855 24.8981 75.0512 25.0497 75.2726 25.2014C75.494 25.3909 75.6711 25.5804 75.8039 25.8457C75.9367 26.0731 75.981 26.3384 75.981 26.6416V28.5366C75.981 28.6503 75.9367 28.7261 75.8482 28.8398C75.7596 28.9156 75.6268 28.9535 75.5382 28.9535C75.4054 28.9535 75.3169 28.9156 75.2283 28.8398C75.1397 28.764 75.0955 28.6503 75.0955 28.5366V26.6416C75.0955 26.49 75.0512 26.3384 74.9626 26.1868C74.8741 26.0352 74.7855 25.9215 74.6527 25.8078C74.5199 25.6941 74.387 25.6183 74.2099 25.5425C74.0328 25.4667 73.8557 25.4288 73.6786 25.4288C73.5015 25.4288 73.3243 25.4667 73.1472 25.5046C72.9701 25.5804 72.8373 25.6562 72.7045 25.7699C72.5716 25.8836 72.4831 25.9973 72.3945 26.1489C72.306 26.3005 72.306 26.4521 72.306 26.6037V28.4608H72.2617Z" fill="#41AD4C"/>
<path d="M77.9735 23.7994C77.9735 23.9131 77.9292 24.0268 77.7964 24.1405C77.7078 24.2163 77.575 24.2921 77.3979 24.2921C77.2208 24.2921 77.1322 24.2542 76.9994 24.1405C76.9108 24.0647 76.8223 23.951 76.8223 23.7994C76.8223 23.6856 76.8665 23.5719 76.9994 23.4582C77.0879 23.3824 77.2208 23.3066 77.3979 23.3066C77.575 23.3066 77.6635 23.3445 77.7964 23.4582C77.9292 23.5719 77.9735 23.6856 77.9735 23.7994ZM76.9551 28.4612V24.9743C76.9551 24.8606 76.9994 24.7848 77.0879 24.6711C77.1765 24.5953 77.3093 24.5574 77.3979 24.5574C77.5307 24.5574 77.6193 24.5953 77.7078 24.6711C77.7964 24.7469 77.8406 24.8606 77.8406 24.9743V28.4612C77.8406 28.5749 77.7964 28.6507 77.7078 28.7644C77.6193 28.8402 77.4864 28.8781 77.3979 28.8781C77.265 28.8781 77.1765 28.8402 77.0879 28.7644C76.9994 28.6886 76.9551 28.5749 76.9551 28.4612Z" fill="#41AD4C"/>
<path d="M79.7889 24.9742C80.1874 24.7089 80.6744 24.5952 81.2058 24.5952C81.5157 24.5952 81.8257 24.6331 82.0913 24.7468C82.357 24.8605 82.6227 25.0121 82.8441 25.1637C83.0655 25.3532 83.2426 25.5427 83.3754 25.808C83.5082 26.0354 83.5525 26.3008 83.5525 26.604V28.499C83.5525 28.6127 83.5082 28.6885 83.4197 28.8022C83.3311 28.878 83.1983 28.9159 83.1097 28.9159C82.9769 28.9159 82.8884 28.878 82.7555 28.8022C82.667 28.7264 82.6227 28.6127 82.6227 28.499V26.604C82.6227 26.4524 82.5784 26.3008 82.4898 26.1492C82.4013 25.9975 82.3127 25.8838 82.1799 25.7701C82.0471 25.6564 81.9142 25.5806 81.7371 25.5048C81.56 25.429 81.3829 25.3911 81.2058 25.3911C81.0287 25.3911 80.8516 25.429 80.6744 25.4669C80.4973 25.5427 80.3645 25.6185 80.2317 25.7322C80.0988 25.8459 80.0103 25.9596 79.9217 26.1112C79.8332 26.2629 79.8332 26.4145 79.8332 26.5661V28.4611C79.8332 28.5748 79.7889 28.6506 79.7003 28.7643C79.6118 28.8401 79.4789 28.878 79.3904 28.878C79.2575 28.878 79.169 28.8401 79.0362 28.7643C78.9476 28.6885 78.9033 28.5748 78.9033 28.4611V24.9742C78.9033 24.8605 78.9476 24.7847 79.0362 24.7089C79.1247 24.6331 79.2575 24.5952 79.3904 24.5952C79.5232 24.5952 79.6118 24.6331 79.7003 24.7089C79.7446 24.7847 79.7889 24.8605 79.7889 24.9742Z" fill="#41AD4C"/>
<path d="M88.2903 28.423C87.8475 28.7262 87.3161 28.8778 86.6963 28.8778C85.9878 28.8778 85.4122 28.6504 84.9251 28.2335C84.4381 27.8166 84.1724 27.3239 84.1724 26.7175C84.1724 26.1111 84.4381 25.6184 84.9251 25.2014C85.4122 24.7845 85.9878 24.5571 86.6963 24.5571C87.4047 24.5571 87.9803 24.7845 88.4674 25.2014C88.9544 25.6184 89.2201 26.1111 89.2201 26.7175V28.8399C89.2201 29.0294 89.1758 29.181 89.1315 29.3705C89.0873 29.5221 88.9544 29.6737 88.8659 29.8254C88.733 29.977 88.6002 30.0907 88.4674 30.2044C88.2903 30.3181 88.1574 30.3939 87.936 30.4697C87.7589 30.5455 87.5818 30.6213 87.3604 30.6592C87.139 30.6971 86.9619 30.735 86.7405 30.735C86.5192 30.735 86.2535 30.6971 86.0321 30.6592C85.8107 30.6213 85.5893 30.5455 85.3679 30.4318C85.1465 30.3181 84.9694 30.2044 84.7923 30.0528C84.6152 29.9012 84.4824 29.7496 84.3495 29.56C84.3053 29.4842 84.261 29.4463 84.261 29.3326C84.261 29.2189 84.3053 29.1052 84.3938 29.0294C84.4824 28.9536 84.6152 28.9157 84.748 28.9157C84.8366 28.9157 84.9251 28.9157 84.9694 28.9536C85.0137 28.9915 85.1023 29.0673 85.1908 29.181C85.2794 29.2947 85.3679 29.4084 85.4565 29.4463C85.8107 29.7496 86.2092 29.9012 86.6963 29.9012C87.1833 29.9012 87.5818 29.7495 87.936 29.4842C88.1574 29.2568 88.246 29.0673 88.246 28.8399V28.423H88.2903ZM86.7405 25.391C86.5192 25.391 86.2978 25.4288 86.1206 25.5047C85.9435 25.5805 85.7664 25.6563 85.6336 25.8079C85.5008 25.9216 85.3679 26.0732 85.2794 26.2248C85.1908 26.3764 85.1465 26.5659 85.1465 26.7554C85.1465 26.9449 85.1908 27.0965 85.2794 27.286C85.3679 27.4376 85.4565 27.5892 85.6336 27.7029C85.7664 27.8166 85.9435 27.9303 86.1206 28.0061C86.2978 28.0819 86.5192 28.1198 86.7405 28.1198C86.9619 28.1198 87.1833 28.0819 87.3604 28.0061C87.5375 27.9303 87.7147 27.8545 87.8475 27.7029C87.9803 27.5892 88.1131 27.4376 88.2017 27.286C88.2903 27.1344 88.3345 26.9449 88.3345 26.7554C88.3345 26.5659 88.2903 26.4143 88.2017 26.2248C88.1131 26.0353 88.0246 25.9216 87.8475 25.8079C87.7147 25.6942 87.5375 25.5805 87.3604 25.5047C87.139 25.4288 86.9619 25.391 86.7405 25.391Z" fill="#41AD4C"/>
<path d="M92.6295 28.4608V23.1547C92.6295 23.041 92.6738 22.9652 92.7624 22.8515C92.8509 22.7757 92.9837 22.7378 93.1166 22.7378C93.2494 22.7378 93.3823 22.7757 93.4708 22.8515C93.5594 22.9273 93.6036 23.041 93.6036 23.1547V28.0818H93.825C93.9579 28.0818 94.0464 28.1197 94.135 28.1955C94.2235 28.2713 94.2678 28.385 94.2678 28.4987C94.2678 28.6124 94.2235 28.6882 94.135 28.764C94.0464 28.8398 93.9136 28.8777 93.825 28.8777H93.1609C93.028 28.8777 92.9395 28.8398 92.8509 28.764C92.6738 28.6882 92.6295 28.5745 92.6295 28.4608Z" fill="#41AD4C"/>
<path d="M96.0831 23.7994C96.0831 23.9131 96.0389 24.0268 95.906 24.1405C95.8175 24.2163 95.6846 24.2921 95.5075 24.2921C95.3747 24.2921 95.2418 24.2542 95.109 24.1405C95.0204 24.0647 94.9319 23.951 94.9319 23.7994C94.9319 23.6856 94.9762 23.5719 95.109 23.4582C95.1976 23.3824 95.3304 23.3066 95.5075 23.3066C95.6403 23.3066 95.7732 23.3445 95.906 23.4582C96.0389 23.5719 96.0831 23.6856 96.0831 23.7994ZM95.0647 28.4612V24.9743C95.0647 24.8606 95.109 24.7848 95.1976 24.6711C95.2861 24.5953 95.4189 24.5574 95.5075 24.5574C95.6403 24.5574 95.7289 24.5953 95.8175 24.6711C95.906 24.7469 95.9503 24.8606 95.9503 24.9743V28.4612C95.9503 28.5749 95.906 28.6507 95.8175 28.7644C95.7289 28.8402 95.5961 28.8781 95.5075 28.8781C95.3747 28.8781 95.2861 28.8402 95.1976 28.7644C95.109 28.6886 95.0647 28.5749 95.0647 28.4612Z" fill="#41AD4C"/>
<path d="M99.7583 23.534C98.917 23.534 98.5185 23.8751 98.5185 24.5952V24.7847H99.4041C99.5369 24.7847 99.6255 24.8226 99.714 24.8984C99.8026 24.9742 99.8469 25.088 99.8469 25.1638C99.8469 25.2775 99.8026 25.3533 99.714 25.467C99.6255 25.5428 99.4926 25.5807 99.4041 25.5807H98.5185V28.4611C98.5185 28.499 98.5185 28.5748 98.4742 28.6127C98.43 28.6506 98.43 28.6885 98.3857 28.7264C98.3414 28.7643 98.2971 28.8022 98.2528 28.8022C98.2086 28.8401 98.12 28.8401 98.0757 28.8401C98.0315 28.8401 97.9429 28.8401 97.8986 28.8022C97.8543 28.7643 97.8101 28.7643 97.7658 28.7264C97.7215 28.6885 97.6772 28.6506 97.6772 28.6127C97.6329 28.5748 97.633 28.499 97.633 28.4611V25.5807H97.4116C97.2787 25.5807 97.1459 25.5428 97.0573 25.467C96.9688 25.3912 96.9245 25.2775 96.9245 25.1638C96.9245 25.0501 96.9688 24.9363 97.0573 24.8605C97.1459 24.7847 97.2787 24.7468 97.4116 24.7468H97.633V24.5573C97.633 23.3066 98.3414 22.7002 99.8026 22.7002C99.9354 22.7002 100.024 22.7381 100.113 22.8139C100.201 22.8897 100.245 23.0034 100.245 23.0792C100.245 23.1929 100.201 23.2687 100.113 23.3824C99.9797 23.4961 99.8911 23.534 99.7583 23.534Z" fill="#41AD4C"/>
<path d="M104.363 27.6652C104.496 27.6652 104.629 27.7031 104.717 27.7789C104.806 27.8547 104.85 27.9684 104.85 28.0821C104.85 28.1958 104.806 28.3095 104.717 28.3853C104.275 28.7264 103.699 28.9159 103.079 28.9159C102.371 28.9159 101.795 28.6885 101.308 28.2716C100.821 27.8547 100.555 27.362 100.555 26.7556C100.555 26.1491 100.821 25.6564 101.308 25.2395C101.795 24.8226 102.371 24.5952 103.079 24.5952C103.787 24.5952 104.363 24.8226 104.85 25.2395C105.116 25.429 105.293 25.6943 105.381 25.9217C105.514 26.1871 105.559 26.4524 105.559 26.7556C105.559 26.8693 105.514 26.983 105.426 27.0588C105.337 27.1346 105.204 27.1725 105.072 27.1725H101.529C101.574 27.3241 101.662 27.4378 101.751 27.5515C101.839 27.6652 101.972 27.7789 102.105 27.8547C102.238 27.9305 102.371 28.0063 102.548 28.0442C102.725 28.0821 102.858 28.12 103.035 28.12C103.212 28.12 103.433 28.0821 103.566 28.0442C103.743 28.0063 103.876 27.9305 104.009 27.8168C104.142 27.7031 104.275 27.6652 104.363 27.6652ZM104.584 26.3387C104.54 26.1871 104.452 26.0733 104.363 25.9596C104.275 25.8459 104.142 25.7322 104.009 25.6564C103.876 25.5806 103.743 25.5048 103.566 25.4669C103.389 25.429 103.256 25.3911 103.079 25.3911C102.902 25.3911 102.725 25.429 102.592 25.4669C102.415 25.5048 102.282 25.5806 102.149 25.6564C102.016 25.7322 101.884 25.8459 101.795 25.9596C101.706 26.0733 101.618 26.1871 101.574 26.3387H104.584Z" fill="#41AD4C"/>
</svg>
