<svg width="20" height="33" viewBox="0 0 20 33" fill="none" xmlns="http://www.w3.org/2000/svg">
<path d="M19.4802 0.758621C18.7451 0.37931 18.01 0 17.2749 0H2.94041C1.4702 0 0 1.51724 0 3.03448V29.9655C0 30.7241 0.367551 31.4828 0.735102 32.2414C1.4702 33 2.20531 33 2.94041 33H16.9073C17.6424 33 18.3776 32.6207 19.1127 32.2414C19.8478 31.4828 19.8478 30.7241 19.8478 29.9655V3.03448C20.2153 2.27586 19.8478 1.51724 19.4802 0.758621ZM9.92388 31.1034C9.55633 31.1034 9.18878 30.7241 9.18878 30.3448C9.18878 29.9655 9.55633 29.5862 9.92388 29.5862C10.659 29.2069 11.0265 29.5862 11.0265 29.9655C11.0265 30.7241 10.659 31.1034 9.92388 31.1034ZM17.6425 25.7931C17.6425 26.931 16.9073 27.6897 15.8047 27.6897H4.41061C3.30796 27.6897 2.57286 26.931 2.57286 25.7931V5.68966C2.57286 4.55172 3.30796 3.7931 4.41061 3.7931H15.8047C16.9073 3.7931 17.6425 4.55172 17.6425 5.68966V25.7931Z" fill="#29ABE2"/>
</svg>
