<svg width="17" height="13" viewBox="0 0 17 13" fill="none" xmlns="http://www.w3.org/2000/svg">
<path d="M0 0.984848C0 0.440932 0.442509 0 0.988372 0H16.0116C16.5575 0 17 0.440932 17 0.984848C17 1.52877 16.5575 1.9697 16.0116 1.9697H0.988373C0.44251 1.9697 0 1.52877 0 0.984848Z" fill="#34A2D4"/>
<path d="M0 6.5C0 5.95608 0.442509 5.51515 0.988372 5.51515H16.0116C16.5575 5.51515 17 5.95608 17 6.5C17 7.04392 16.5575 7.48485 16.0116 7.48485H0.988373C0.44251 7.48485 0 7.04392 0 6.5Z" fill="#34A2D4"/>
<path d="M0 12.0152C0 11.4712 0.442509 11.0303 0.988372 11.0303H16.0116C16.5575 11.0303 17 11.4712 17 12.0152C17 12.5591 16.5575 13 16.0116 13H0.988373C0.44251 13 0 12.5591 0 12.0152Z" fill="#34A2D4"/>
</svg>
