<svg width="38" height="35" viewBox="0 0 38 35" fill="none" xmlns="http://www.w3.org/2000/svg">
<path fill-rule="evenodd" clip-rule="evenodd" d="M5.77388 0.506348H32.8632C35.6955 0.506348 37.9998 2.81027 37.9998 5.64304V22.2211C37.9998 25.0534 35.6955 27.3578 32.8632 27.3578H16.567L5.75564 34.8807V27.3578C2.93155 27.3477 0.637207 25.0475 0.637207 22.2211V5.64304C0.637207 2.81027 2.94159 0.506348 5.77388 0.506348ZM32.8632 25.1685C34.4884 25.1685 35.8106 23.8461 35.8106 22.2211V5.64304C35.8106 4.01755 34.4884 2.69556 32.8632 2.69556H5.77388C4.14862 2.69556 2.82642 4.01755 2.82642 5.64304V22.2211C2.82642 23.8461 4.14862 25.1685 5.77388 25.1685H7.94486V30.6904L15.8801 25.1685H32.8632ZM28 8.2417H10.6372V10.4309H28V8.2417ZM10.6372 12.9121H28V15.1013H10.6372V12.9121ZM28 17.5825H10.6372V19.7717H28V17.5825Z" fill="white"/>
</svg>
