<svg width="40" height="30" viewBox="0 0 40 30" fill="none" xmlns="http://www.w3.org/2000/svg">
<path fill-rule="evenodd" clip-rule="evenodd" d="M38.941 23.6459L30.1165 14.8192C31.7723 11.0602 31.0638 6.50227 27.9898 3.42754C23.9848 -0.578441 17.502 -0.57898 13.4965 3.42754C9.50081 7.42411 9.50081 13.927 13.4965 17.9236C16.6716 21.0995 21.3248 21.7042 25.0396 19.9869L33.819 28.7684C35.2345 30.1842 37.5259 30.1843 38.9413 28.7681C40.353 27.3558 40.3528 25.058 38.941 23.6459ZM15.1315 16.2889C12.0371 13.1937 12.0371 8.15752 15.1315 5.06228C18.2328 1.96019 23.2528 1.95965 26.3547 5.06228C29.4492 8.15752 29.4492 13.1937 26.3547 16.2889C23.2533 19.391 18.2333 19.3915 15.1315 16.2889ZM37.3061 27.1336C36.7943 27.6455 35.966 27.6458 35.4541 27.1336L27.0661 18.7437C27.7556 18.201 28.3701 17.5778 28.9037 16.8763L37.3059 25.2805C37.8167 25.7914 37.8167 26.6227 37.3061 27.1336ZM1.69769 14.2756H6.62728C7.26573 14.2756 7.78334 13.758 7.78334 13.1196C7.78334 12.4811 7.26573 11.9635 6.62728 11.9635H1.69769C1.05923 11.9635 0.541626 12.4811 0.541626 13.1196C0.541626 13.758 1.05923 14.2756 1.69769 14.2756ZM8.4759 19.2082H1.69769C1.05923 19.2082 0.541626 18.6906 0.541626 18.0521C0.541626 17.4137 1.05923 16.8961 1.69769 16.8961H8.4759C9.11435 16.8961 9.63196 17.4137 9.63196 18.0521C9.63196 18.6906 9.11435 19.2082 8.4759 19.2082ZM1.69769 24.1407H13.4056C14.044 24.1407 14.5616 23.6231 14.5616 22.9846C14.5616 22.3462 14.044 21.8285 13.4056 21.8285H1.69769C1.05923 21.8285 0.541626 22.3462 0.541626 22.9846C0.541626 23.6231 1.05923 24.1407 1.69769 24.1407ZM1.69769 26.761H26.9621C27.6006 26.761 28.1182 27.2786 28.1182 27.9171C28.1182 28.5555 27.6006 29.0731 26.9621 29.0731H1.69769C1.05923 29.0731 0.541626 28.5555 0.541626 27.9171C0.541626 27.2786 1.05923 26.761 1.69769 26.761Z" fill="white"/>
</svg>
