<svg width="38" height="38" viewBox="0 0 38 38" fill="none" xmlns="http://www.w3.org/2000/svg">
<path d="M32.4351 5.56492C28.8464 1.97637 24.0751 0 19 0C13.9249 0 9.15362 1.97637 5.56492 5.56492C1.97637 9.15362 0 13.9249 0 19C0 24.0751 1.97637 28.8464 5.56492 32.4351C9.15362 36.0236 13.9249 38 19 38C24.0751 38 28.8464 36.0236 32.4351 32.4351C36.0236 28.8464 38 24.0751 38 19C38 13.9249 36.0236 9.15362 32.4351 5.56492ZM17.8867 35.7356C9.15496 35.1605 2.22656 27.8747 2.22656 19C2.22656 10.1253 9.15496 2.83946 17.8867 2.26441V35.7356ZM20.1133 35.7356V2.26441C28.845 2.83946 35.7734 10.1253 35.7734 19C35.7734 27.8747 28.845 35.1605 20.1133 35.7356Z" fill="white"/>
</svg>
