<svg width="32" height="32" viewBox="0 0 32 32" fill="none" xmlns="http://www.w3.org/2000/svg">
<path d="M31.3601 23.7569L26.6679 19.1111C24.9616 17.4217 22.4022 18.2664 21.5491 20.3781C21.1225 21.6452 19.4163 22.4898 18.1366 22.0675C14.724 21.2228 10.4584 16.9994 9.60524 13.6206C9.17867 12.3536 10.4584 10.6642 11.7381 10.2419C13.8709 9.39716 14.2975 6.8631 13.0178 5.17372L8.32554 0.950275C7.04584 -0.316758 4.913 -0.316758 4.05987 0.950275L1.0739 3.90669C-1.91207 7.28544 1.50047 15.7323 9.17867 22.9122C16.8569 30.5144 25.3882 33.8931 28.3742 30.9367L31.3601 27.9803C32.2133 26.7133 32.2133 24.6016 31.3601 23.7569Z" fill="#29ABE2"/>
</svg>
