<svg width="98" height="106" viewBox="0 0 98 106" fill="none" xmlns="http://www.w3.org/2000/svg">
<path d="M81.5 68C81.5 85.9492 66.9493 100.5 49 100.5C31.0507 100.5 16.5 85.9492 16.5 68C16.5 64.0804 18.3788 58.1662 21.8879 50.9178C25.3014 43.8667 29.9056 36.2491 34.5887 29.1621C39.259 22.0944 43.9394 15.6567 47.4576 10.9802C48.0014 10.2574 48.517 9.57719 49 8.94393C49.483 9.57719 49.9986 10.2574 50.5424 10.9802C54.0606 15.6567 58.741 22.0944 63.4113 29.1621C68.0944 36.2491 72.6986 43.8667 76.1121 50.9178C79.6212 58.1662 81.5 64.0804 81.5 68Z" stroke="#34A2D4" stroke-width="11"/>
<path fill-rule="evenodd" clip-rule="evenodd" d="M97.5808 13.6569L91.924 8L48.7902 51.1338L5.65686 8.00043L0 13.6573L43.1333 56.7906L9.15527e-05 99.9239L5.65695 105.581L48.7902 62.4475L91.9239 105.581L97.5807 99.9243L54.4471 56.7906L97.5808 13.6569Z" fill="#34A2D4"/>
</svg>
